<svg xmlns="http://www.w3.org/2000/svg" width="634.551" height="559.44" viewBox="0 0 634.551 559.44"><g transform="translate(-68.687)" opacity="0.558"><g transform="translate(297.667 0)"><path d="M207.078,389.233l-56.046-32.418c-5.775-3.32-8.662-7.7-8.662-12.062v-7.8l58.147-32.787a12.351,12.351,0,0,0,5.582-9.624V225.41l97.848,56.559v69.087a12.351,12.351,0,0,1-5.582,9.624l-49.469,28.5C237.363,395.89,218.627,395.89,207.078,389.233Z" transform="translate(-55.35 136.161)" fill="#520a7c"/><g transform="translate(87.02 361.571)" opacity="0.6"><path d="M207.078,389.233l-56.046-32.418c-5.775-3.32-8.662-7.7-8.662-12.062v-7.8l58.147-32.787a12.351,12.351,0,0,0,5.582-9.624V225.41l97.848,56.559v69.087a12.351,12.351,0,0,1-5.582,9.624l-49.469,28.5C237.363,395.89,218.627,395.89,207.078,389.233Z" transform="translate(-142.37 -225.41)"/></g><path d="M142.34,346.025v7.764l17.949-10.33a12.352,12.352,0,0,0,5.566-9.624V264.7l-18.7-10.7c-.385,4.812-.818,9.624-1.2,14.437l13.089,7.571v53.977a12.287,12.287,0,0,1-5.582,9.624Z" transform="translate(82.79 153.431)" opacity="0.3"/><path d="M301.518,342.952a12.319,12.319,0,0,1-5.582,9.625l-42.7,24.606c-11.549,6.673-30.285,6.673-41.85,0l-56.142-32.4c-11.565-6.657-11.565-17.484,0-24.141l42.716-24.622a12.3,12.3,0,0,0,5.582-9.624V232.4l97.848,56.559Z" transform="translate(-59.658 140.383)" fill="#520a7c"/><path d="M301.518,342.952a12.319,12.319,0,0,1-5.582,9.625l-42.7,24.606c-11.549,6.673-30.285,6.673-41.85,0l-56.142-32.4c-11.565-6.657-11.565-17.484,0-24.141l42.716-24.622a12.3,12.3,0,0,0,5.582-9.624V232.4l97.848,56.559Z" transform="translate(-59.658 140.383)" opacity="0.3"/><path d="M146.6,302.61h0l11.357-6.561a12.3,12.3,0,0,0,5.582-9.624V232.4l97.848,56.559v53.993a12.319,12.319,0,0,1-5.582,9.625l-11.228,6.416Z" transform="translate(-19.574 140.383)" opacity="0.5"/><path d="M190.26,295v7.8c0,4.379,2.9,8.726,8.662,12.079l56.142,32.386a41.883,41.883,0,0,0,19.971,4.957v-7.764a41.881,41.881,0,0,1-19.971-4.956l-56.142-32.418C193.163,303.678,190.26,299.3,190.26,295Z" transform="translate(-103.256 178.198)" fill="#520a7c"/><path d="M190.26,295v7.8c0,4.379,2.9,8.726,8.662,12.079l56.142,32.386a41.883,41.883,0,0,0,19.971,4.957v-7.764a41.881,41.881,0,0,1-19.971-4.956l-56.142-32.418C193.163,303.678,190.26,299.3,190.26,295Z" transform="translate(-103.256 178.198)" opacity="0.5"/><path d="M443.547,550.434a15,15,0,0,1-13.49-.241L51.5,331.64a15.431,15.431,0,0,1-6.978-12.079V13.329A14.966,14.966,0,0,1,51.048,1.491a14.918,14.918,0,0,1,13.506.257L443.113,220.3a15.4,15.4,0,0,1,6.962,12.079V538.612A14.95,14.95,0,0,1,443.547,550.434Z" transform="translate(-44.52 0)" fill="#520a7c"/><path d="M438.186,547.055,59.628,328.486a15.383,15.383,0,0,1-6.978-12.079V10.176c0-4.443,3.128-6.256,6.978-4.026L438.186,224.639a15.431,15.431,0,0,1,6.978,12.079v306.3C445.132,547.473,442,549.269,438.186,547.055Z" transform="translate(-52.65 3.137)" fill="#520a7c"/><path d="M438.186,547.055,59.628,328.486a15.383,15.383,0,0,1-6.978-12.079V10.176c0-4.443,3.128-6.256,6.978-4.026L438.186,224.639a15.431,15.431,0,0,1,6.978,12.079v306.3C445.132,547.473,442,549.269,438.186,547.055Z" transform="translate(-52.65 3.137)" opacity="0.5"/><path d="M44.51,363.1a15.11,15.11,0,0,0,12.5-.257,15,15,0,0,0,6.545-11.854V323l-13.073,7.571V358.45C50.477,362.54,47.895,364.385,44.51,363.1Z" transform="translate(342.021 195.111)" fill="#520a7c"/><path d="M44.51,363.1a15.11,15.11,0,0,0,12.5-.257,15,15,0,0,0,6.545-11.854V323l-13.073,7.571V358.45C50.477,362.54,47.895,364.385,44.51,363.1Z" transform="translate(342.021 195.111)" opacity="0.5"/><path d="M445.158,413.1v27.879c0,4.443-3.128,6.24-6.978,4.026L59.638,226.451a15.431,15.431,0,0,1-6.978-12.079V186.43Z" transform="translate(-52.66 112.615)" fill="#520a7c"/><path d="M445.152,413.052v27.927c0,4.443-3.128,6.24-6.978,4.026L59.648,226.451a15.431,15.431,0,0,1-6.978-12.079V186.43Z" transform="translate(-52.67 112.615)" opacity="0.3"/><path d="M427.156,479.517V233.053a9.223,9.223,0,0,0-4.171-7.25L65.007,19.135c-2.31-1.331-4.187-.257-4.187,2.422V268.021a9.239,9.239,0,0,0,4.187,7.25L422.969,481.939C425.263,483.271,427.156,482.2,427.156,479.517Z" transform="translate(-47.747 11.213)" fill="#520a7c"/><path d="M427.156,479.517V233.053a9.223,9.223,0,0,0-4.171-7.25L65.007,19.135c-2.31-1.331-4.187-.257-4.187,2.422V268.021a9.239,9.239,0,0,0,4.187,7.25L422.969,481.939C425.263,483.271,427.156,482.2,427.156,479.517Z" transform="translate(-47.747 11.213)" fill="#263238"/><path d="M177.465,262.957a14.437,14.437,0,0,1,6.545,11.325c0,4.171-2.935,5.871-6.545,3.786a14.437,14.437,0,0,1-6.545-11.341C170.9,262.556,173.823,260.872,177.465,262.957Z" transform="translate(18.792 158.301)" fill="#520a7c"/><path d="M44.51,148.109a14.886,14.886,0,0,1,2.069,6.9V440.8l13.153-7.6V147.467a14.325,14.325,0,0,0-2.053-6.9Z" transform="translate(345.839 84.912)" opacity="0.7"/><path d="M45.84,12.175c.513-3.593,3.4-4.908,6.93-2.887L431.328,227.777a14.436,14.436,0,0,1,4.812,5.245l13.089-7.555a14.58,14.58,0,0,0-4.941-5.165L65.73,1.748a14.95,14.95,0,0,0-13.522-.257A15.094,15.094,0,0,0,45.84,12.175Z" transform="translate(-45.792 -0.001)" opacity="0.3"/></g><g transform="translate(269.724 49.481)"><g transform="translate(0)"><path d="M89.608,31.219a3.433,3.433,0,0,1,3.545.273L450.361,237.758a10.763,10.763,0,0,1,4.892,8.469V491.184a4.812,4.812,0,0,1-2.069,4.251c-.786.433-4.989,2.871-6.24,3.545a2.775,2.775,0,0,1-2.823-.16L86.929,292.553a10.763,10.763,0,0,1-4.812-8.453V37.86a3.368,3.368,0,0,1,1.508-3.208C84.427,34.186,88.709,31.764,89.608,31.219Z" transform="translate(-82.036 -30.846)" fill="#520a7c"/><path d="M449.433,496.858c1.363,0,2.486-1.684,2.486-3.754V248.132a10.121,10.121,0,0,0-4.491-7.764L90.123,34.1a3.818,3.818,0,0,0-1.78-.561c-1.187,0-1.893,1.011-1.893,2.695V282.394a10.105,10.105,0,0,0,4.475,7.764L448.166,496.5a2.39,2.39,0,0,0,1.267.353Z" transform="translate(-85.68 -29.221)" fill="#fafafa"/><path d="M88.615,34.58h0c-.946,0-1.091,1.187-1.091,1.893V282.7a9.159,9.159,0,0,0,4.09,7.074L448.791,496.1a1.605,1.605,0,0,0,.818.257c.9,0,1.684-1.379,1.684-2.951V248.434a9.207,9.207,0,0,0-4.09-7.074L89.994,35.109a2.743,2.743,0,0,0-1.379-.465m0-1.6a4.668,4.668,0,0,1,2.182.674L448.069,239.98a10.8,10.8,0,0,1,4.812,8.453V493.342c0,2.47-1.38,4.556-3.288,4.556a3.208,3.208,0,0,1-1.6-.465L90.812,291.23A10.763,10.763,0,0,1,86,282.777V36.537c0-2.214,1.091-3.5,2.695-3.5Z" transform="translate(-85.92 -29.523)" fill="#e0e0e0"/><path d="M88.094,408.359l-6,3.4a4.989,4.989,0,0,0,1.8-4.171V178.673L90.147,175V404.124A4.812,4.812,0,0,1,88.094,408.359Z" transform="translate(283.07 56.229)" fill="#f0f0f0"/><path d="M86,36.5c0-3.1,2.2-4.347,4.812-2.791L448.149,239.978a10.8,10.8,0,0,1,4.812,8.453v16.041L86,52.544Z" transform="translate(-86 -29.522)" fill="#520a7c"/><g transform="translate(1.604)" opacity="0.4"><path d="M86.272,35.038,443.545,241.3a9.977,9.977,0,0,1,3.433,3.625l6.192-3.593a9.625,9.625,0,0,0-3.4-3.577L92.512,31.493a3.465,3.465,0,0,0-3.545-.289c-.882.545-4.924,2.855-5.967,3.4a3.529,3.529,0,0,1,3.272.433Z" transform="translate(-83 -30.848)" fill="#fff"/></g><path d="M89.816,182.8V166.9a9.961,9.961,0,0,0-1.492-4.812L82.1,165.667a9.8,9.8,0,0,1,1.46,4.812V186.52Z" transform="translate(283.402 48.431)" opacity="0.15"/><path d="M149.149,150.645,363.083,274.158a7.876,7.876,0,0,1,3.577,6.176v61.339a7.876,7.876,0,0,1-3.577,6.176l-6.24,3.593a7.924,7.924,0,0,1-7.154,0l-213.9-123.513a7.908,7.908,0,0,1-3.577-6.192V160.4a7.908,7.908,0,0,1,3.577-6.192l6.256-3.593a7.876,7.876,0,0,1,7.106.032Z" transform="translate(-73.822 40.996)" fill="#520a7c"/><path d="M132.87,159.809c.241-1.861,1.748-2.534,3.545-1.492L350.349,281.83a7.138,7.138,0,0,1,2.518,2.679l13.394-7.683a7.457,7.457,0,0,0-2.5-2.631L149.809,150.682a7.876,7.876,0,0,0-7.138,0l-6.256,3.593a8.02,8.02,0,0,0-3.545,5.534Z" transform="translate(-74.482 41.023)" fill="#fff" opacity="0.5"/><path d="M132.21,303.9a8.02,8.02,0,0,0,6.529-.289l6.256-3.593a7.876,7.876,0,0,0,3.577-6.176V232.5a7.475,7.475,0,0,0-1.059-3.545l-13.394,7.748a7.186,7.186,0,0,1,1.059,3.513V301.56C135.177,303.6,133.894,304.543,132.21,303.9Z" transform="translate(144.266 88.825)" fill="#263238"/><path d="M358.091,278.816,144.157,155.3c-1.973-1.139-3.577-.209-3.577,2.069v61.339a7.908,7.908,0,0,0,3.577,6.192l213.9,123.513c1.973,1.139,3.577.225,3.577-2.053V285.04A7.908,7.908,0,0,0,358.091,278.816Z" transform="translate(-82.224 44.037)" fill="#520a7c"/><path d="M146.3,170.73,303.5,261.5a7.459,7.459,0,0,1,2.5,2.631l-13.394,7.748a7.138,7.138,0,0,0-2.518-2.679l-157.2-90.758Z" transform="translate(-14.254 53.65)" fill="#455a64"/><path d="M140.56,175.54l157.2,90.758a7.908,7.908,0,0,1,3.577,6.192v61.339c0,2.278-1.6,3.208-3.577,2.053l-157.2-90.758Z" transform="translate(-21.891 56.556)" fill="#37474f"/><path d="M248.891,245.44,167.709,198.6c-3.353-1.941-6.079-.561-6.079,3.08a13.089,13.089,0,0,0,6.079,10.122l81.117,46.823c3.352,1.941,6.079.561,6.1-3.08a13.041,13.041,0,0,0-6.031-10.106Z" transform="translate(-9.276 69.955)" fill="#520a7c"/><path d="M254.946,209.138l15.591,9-2.422-21.847c1.861-.994,3.064-3.417,3.064-6.9,0-6.208-3.785-13.41-8.437-16.041s-8.421.176-8.421,6.416a21.207,21.207,0,0,0,3.048,10.41Z" transform="translate(-174.213 54.638)" fill="#455a64"/><path d="M254.72,198.268l13.715-7.908,1.877,16.907Z" transform="translate(-173.988 65.508)" fill="#37474f"/><path d="M263.521,173.319a18.367,18.367,0,0,1,7.186,9.544l-12.56,7.25h0A21.206,21.206,0,0,1,255.1,179.7C255.1,173.5,258.87,170.64,263.521,173.319Z" transform="translate(-174.993 54.606)" fill="#37474f"/><path d="M200.056,128.343c5.342-3.1,12.7-2.647,20.853,2.037,16.249,9.4,29.451,32.29,29.451,51.009,0,9.432-3.32,16.041-8.678,19.1-1.4.786-8.967,5.2-10.378,6.015-5.326,3.08-12.688,2.631-20.853-2.053C194.185,195.056,181,172.214,181,153.447c0-9.384,3.3-16.041,8.63-19.056" transform="translate(-35.784 26.854)" fill="#520a7c"/><path d="M216.971,134.165c16.265,9.384,29.451,32.226,29.451,51.009s-13.185,26.387-29.451,17S187.5,169.936,187.52,151.168,200.738,124.766,216.971,134.165Z" transform="translate(-42.304 29.132)" fill="#520a7c"/><path d="M195.73,162.7v2.214a47.24,47.24,0,0,0,16.249,17.035c6.336,3.657,12.063,4.042,16.265,1.716V179.22A28.873,28.873,0,0,0,214.979,156.2l-4.283-2.454c-3.786-2.2-7.475-2.47-10.362-.8S195.73,158.191,195.73,162.7Z" transform="translate(-37.297 42.257)" fill="#520a7c"/><path d="M194.1,128.334l-10.426,6.047c5.326-3.1,12.688-2.647,20.853,2.053,10.651,6.144,19.987,18.062,25.152,30.83l10.442-6.047c-5.181-12.832-14.437-24.686-25.152-30.846C206.785,125.768,199.486,125.238,194.1,128.334Z" transform="translate(-29.824 26.863)" fill="#fff" opacity="0.4"/><path d="M181.01,185.549,191,179.758c5.358-3.048,8.694-9.624,8.694-19.088l-10.442,6.063C189.255,175.893,186.111,182.389,181.01,185.549Z" transform="translate(14.862 47.573)" opacity="0.2"/><path d="M191.442,148.1,181,154.147a54.731,54.731,0,0,1,4.3,20.179h0l10.458-6.063A54.906,54.906,0,0,0,191.442,148.1Z" transform="translate(18.818 39.98)" opacity="0.1"/><path d="M212.595,161.1a5.533,5.533,0,0,0,2.823-.738,6.93,6.93,0,0,0,3.08-6.416,18.35,18.35,0,0,0-8.405-14.565h0a6.3,6.3,0,0,0-10.154,5.855A18.335,18.335,0,0,0,208.36,159.8,8.486,8.486,0,0,0,212.595,161.1Z" transform="translate(-34.223 33.891)" fill="#fff"/><path d="M200.344,152.935c2.887-1.6,6.577-1.4,10.362.8l4.283,2.454a28.873,28.873,0,0,1,13.25,22.954v4.443c-4.2,2.326-9.929,1.941-16.265-1.716A47.24,47.24,0,0,1,195.74,164.9v-2.149C195.74,158.181,197.344,154.636,200.344,152.935Z" transform="translate(-37.307 42.267)" fill="#fff"/></g></g><g transform="translate(68.687 63.527)"><path d="M423.68,57.723l-5.1,1.957V48.452c0-8.919-7.106-11.052-14.822-6.593h0c-7.732,4.459-13.987,15.3-13.987,24.205v1.6a7.523,7.523,0,0,0-6.416,1.011h0A22.2,22.2,0,0,0,373.3,86.1v.738l-7.122,4.106a14.661,14.661,0,0,0-6.625,11.485c0,4.219,2.968,5.935,6.625,3.818l57.506-33.22a14.613,14.613,0,0,0,6.625-11.485C430.305,57.322,427.354,55.606,423.68,57.723Z" transform="translate(-301.098 -39.604)" fill="#e6e6e6"/><path d="M457.926,47.265l-9.191,5.342a10.88,10.88,0,0,0,.08-1.235V48.693c0-4.812-3.352-6.705-7.475-4.315a14.646,14.646,0,0,0-4.459,4.283c-.674-6-5.39-8.229-11.1-4.924a24.735,24.735,0,0,0-11.229,19.377v4.01a10.474,10.474,0,0,0,.946,4.652l-7.684,4.443A9.16,9.16,0,0,0,403.66,83.4c0,2.647,1.861,3.721,4.155,2.39l50.143-28.873a9.16,9.16,0,0,0,4.155-7.186C462.08,47.009,460.219,45.934,457.926,47.265Z" transform="translate(-403.66 -38.033)" fill="#e6e6e6"/></g><g transform="translate(88.14 234.112)"><path d="M380.842,211.4Z" transform="translate(-331.16 -122.502)" fill="#455a64"/><path d="M317.906,229.175l-10.057-5.807-3.978-4.828,10.041,5.807,3.994,4.828" transform="translate(-118.837 -102.101)" fill="#520a7c"/><path d="M317.906,229.175l-10.057-5.807-3.978-4.828,10.041,5.807,3.994,4.828" transform="translate(-118.837 -102.101)" opacity="0.4"/><path d="M339.367,239.994l-10.057-5.807-8.389-7.427,10.041,5.807,8.405,7.427" transform="translate(-167.647 -97.136)" fill="#520a7c"/><path d="M339.367,239.994l-10.057-5.807-8.389-7.427,10.041,5.807,8.405,7.427" transform="translate(-167.647 -97.136)" opacity="0.4"/><path d="M313.132,280.5a21.2,21.2,0,0,0-4.154,10.924,21.5,21.5,0,0,0,4.154-10.924Zm-23.371.3c3.385-23.034,15.752-45.8,30.477-54.314,7.074-4.09,13.618-4.235,18.864-1.171l9.464,5.47a4.165,4.165,0,0,1,.529.3c.417.241.834.5,1.219.77a16.423,16.423,0,0,1,2.182,1.8,2.954,2.954,0,0,0,.321.3,12.718,12.718,0,0,1,.866.962,15.388,15.388,0,0,1,1.011,1.235A22.771,22.771,0,0,1,356.538,239a16.525,16.525,0,0,1,.818,1.6L440,192.9l10.041,5.791v6.416l-.85.5-.8.449v1.363l1.6.946V212.1l-12.143,25.665-12,6.946-3.994-4.812-10.587,6.416-6.079,10.41-6.705,3.866-8.389-7.443-10.3,5.967-3.465,14.276-17.276,9.961a94.158,94.158,0,0,1-3.208,10.731c-.112.369-.257.722-.4,1.123-5.743,15.094-14.87,28.007-25.168,33.958a27.238,27.238,0,0,1-3.866,1.861,21.417,21.417,0,0,1-2.165.722,16.6,16.6,0,0,1-1.925.433,17.08,17.08,0,0,1-6.128,0l-.834-.209a7.5,7.5,0,0,1-1.171-.337l-.9-.353a6.689,6.689,0,0,1-.914-.417l-.866-.449-.417-.257a.673.673,0,0,1-.208-.112c-2.294-1.315-7.94-4.588-9.48-5.454-7.635-4.427-12.576-15.624-12.576-31.456a82.511,82.511,0,0,1,.93-12.335Z" transform="translate(-226.845 -117.589)" fill="#520a7c"/><path d="M306,297.726c3.978-2.278,7.186-9.079,7.186-15.191s-3.208-9.191-7.186-6.914-7.17,9.1-7.17,15.207S302.038,299.956,306,297.726ZM289.734,284.4c3.384-23,15.752-45.764,30.477-54.281,6.833-3.946,13.153-4.235,18.286-1.508a4.146,4.146,0,0,1,.529.3c.417.241.834.5,1.219.77a16.425,16.425,0,0,1,2.182,1.8,2.948,2.948,0,0,0,.321.3,12.665,12.665,0,0,1,.866.962,15.379,15.379,0,0,1,1.011,1.235,22.754,22.754,0,0,1,1.845,2.839,16.516,16.516,0,0,1,.818,1.6,39.235,39.235,0,0,1,3.208,9.769l89.491-51.683v6.416l-.85.5-.8.449v1.363l1.6.946v3.737L427.8,235.585l-12,6.946-3.994-4.812-10.587,6.416-6.079,10.41-6.705,3.866-8.389-7.443-10.3,5.967-3.465,14.276L349,281.172A94.146,94.146,0,0,1,345.8,291.9c-.112.369-.257.722-.4,1.123-5.742,15.094-14.87,28.007-25.168,33.958a27.261,27.261,0,0,1-3.866,1.861,21.432,21.432,0,0,1-2.165.722,16.609,16.609,0,0,1-1.925.433,17.084,17.084,0,0,1-6.128,0l-.834-.208a7.505,7.505,0,0,1-1.171-.337l-.9-.353a6.686,6.686,0,0,1-.914-.417l-.866-.449-.417-.257a.674.674,0,0,1-.209-.112c-7.315-4.62-12.014-15.64-12.014-31.1a85.2,85.2,0,0,1,.914-12.367Z" transform="translate(-216.777 -115.409)" fill="#520a7c"/><path d="M367.871,261.3c0,6.112,3.208,9.207,7.17,6.914s7.186-9.079,7.186-15.191-3.208-9.191-7.186-6.9a10.172,10.172,0,0,0-2.935,2.679,21.462,21.462,0,0,1-4.155,10.94A12.964,12.964,0,0,0,367.871,261.3Z" transform="translate(-285.818 -85.896)" opacity="0.4"/><path d="M352.09,281.568c0,15.832,4.94,27.028,12.576,31.456,1.6.866,7.186,4.138,9.48,5.454-7.314-4.62-12.014-15.64-12.014-31.1a85.178,85.178,0,0,1,.914-12.207c3.385-23,15.752-45.764,30.477-54.281,6.833-3.946,13.153-4.235,18.286-1.508l-9.464-5.47c-5.245-3.064-11.79-2.919-18.864,1.171C368.74,223.6,356.373,246.359,353,269.393A82.505,82.505,0,0,0,352.09,281.568Z" transform="translate(-290.089 -106.18)" fill="#fff" opacity="0.4"/><path d="M385.612,261.755c0,15.463,4.7,26.483,12.014,31.1-2.294-1.315-7.94-4.588-9.48-5.454-7.635-4.427-12.576-15.624-12.576-31.456V254.2l10.138,5.791A13.165,13.165,0,0,0,385.612,261.755Z" transform="translate(-313.569 -80.56)" fill="#520a7c"/><path d="M385.612,261.755c0,15.463,4.7,26.483,12.014,31.1-2.294-1.315-7.94-4.588-9.48-5.454-7.635-4.427-12.576-15.624-12.576-31.456V254.2l10.138,5.791A13.165,13.165,0,0,0,385.612,261.755Z" transform="translate(-313.569 -80.56)" opacity="0.1"/><path d="M288.82,251.989v3.272l89.86-51.891-1.652-.946V201.06Z" transform="translate(-155.47 -112.66)" opacity="0.15"/><path d="M288.82,252.829v1.925l89.86-51.891-1.652-.946V201.9Z" transform="translate(-155.47 -112.153)" opacity="0.15"/><ellipse cx="23.724" cy="44.401" rx="23.724" ry="44.401" transform="translate(113.112 212.51) rotate(-162.94)" fill="none" stroke="#000" stroke-miterlimit="10" stroke-width="1" opacity="0.15"/><path d="M288.81,240.575a39.235,39.235,0,0,1,3.208,9.769l89.491-51.683-10.041-5.791Z" transform="translate(-158.283 -117.608)" fill="#fff" opacity="0.4"/><path d="M431.56,204.912Z" transform="translate(-410.51 -121.758)" fill="#455a64"/></g></g></svg>