<svg xmlns="http://www.w3.org/2000/svg" width="116.75" height="116.75" viewBox="0 0 116.75 116.75">
  <g id="Icon_ionic-md-close-circle-outline" data-name="Icon ionic-md-close-circle-outline" transform="translate(-3.375 -3.375)" opacity="0.323">
    <path id="Path_105" data-name="Path 105" d="M61.75,15.162A46.568,46.568,0,1,1,28.8,28.8,46.395,46.395,0,0,1,61.75,15.162m0-11.787A58.375,58.375,0,1,0,120.125,61.75,58.366,58.366,0,0,0,61.75,3.375Z" transform="translate(0 0)" fill="#b5b8bc"/>
    <path id="Path_106" data-name="Path 106" d="M69.063,60.9,60.9,69.063,39.875,48.042,18.854,69.063,10.688,60.9,31.708,39.875,10.688,18.854l8.167-8.167L39.875,31.708,60.9,10.688l8.167,8.167L48.042,39.875Z" transform="translate(21.875 21.875)" fill="#b5b8bc"/>
  </g>
</svg>
