<svg xmlns="http://www.w3.org/2000/svg" width="126" height="126" viewBox="0 0 126 126"><g transform="translate(-2.263 -31.157)" opacity="0.323"><path d="M66,3a63,63,0,1,0,63,63A63.023,63.023,0,0,0,66,3Zm0,113.4A50.4,50.4,0,1,1,116.4,66,50.386,50.386,0,0,1,66,116.4Z" transform="translate(-0.737 28.157)" fill="#0ec17c"/><path d="M73.69,17.906l-5.2-5.345a1.118,1.118,0,0,0-.827-.354h0a1.072,1.072,0,0,0-.827.354L30.811,48.855,17.7,35.743a1.142,1.142,0,0,0-1.654,0L10.789,41a1.177,1.177,0,0,0,0,1.683L27.326,59.22A5.23,5.23,0,0,0,30.781,60.9a5.48,5.48,0,0,0,3.426-1.624h.03L73.72,19.589A1.262,1.262,0,0,0,73.69,17.906Z" transform="translate(21.229 56.75)" fill="#0ec17c"/></g></svg>