<svg xmlns="http://www.w3.org/2000/svg" width="30" height="30" viewBox="0 0 30 30"><g transform="translate(-2.263 -31.157)"><path d="M18,3A15,15,0,1,0,33,18,15.005,15.005,0,0,0,18,3Zm0,27A12,12,0,1,1,30,18,12,12,0,0,1,18,30Z" transform="translate(-0.737 28.157)" fill="#fff"/><path d="M25.5,13.563l-1.237-1.273a.266.266,0,0,0-.2-.084h0a.255.255,0,0,0-.2.084l-8.578,8.641L12.164,17.81a.272.272,0,0,0-.394,0l-1.252,1.252a.28.28,0,0,0,0,.4L14.456,23.4a1.245,1.245,0,0,0,.823.4,1.3,1.3,0,0,0,.816-.387H16.1l9.4-9.45A.3.3,0,0,0,25.5,13.563Z" transform="translate(-1.171 27.951)" fill="#fff"/></g></svg>