<svg width="15" height="15" viewBox="0 0 15 15" fill="none" xmlns="http://www.w3.org/2000/svg">
<path d="M10.5329 11.5498C10.2362 11.8352 9.94538 11.8298 9.66048 11.5336L7.39022 9.17326L4.91435 11.5546C4.58052 11.8757 4.26226 11.8789 3.95956 11.5642L2.82443 10.384C2.53953 10.0878 2.564 9.77915 2.89782 9.45807L5.3737 7.07671L3.10344 4.71634C2.79183 4.39237 2.7844 4.08768 3.08113 3.80228L4.12434 2.79889C4.42107 2.51349 4.72524 2.53277 5.03685 2.85674L7.30711 5.2171L9.64389 2.96952C9.97771 2.64844 10.2871 2.636 10.572 2.9322L11.7071 4.11238C12.0098 4.4271 11.9942 4.745 11.6604 5.06608L9.32363 7.31366L11.5939 9.67402C11.8788 9.97022 11.8729 10.261 11.5761 10.5464L10.5329 11.5498Z" fill="white"/>
<path d="M7.66451 12.6373C7.2603 12.7155 7.01915 12.5529 6.94106 12.1494L6.31881 8.9341L2.94615 9.5868C2.49141 9.67481 2.22256 9.50445 2.13959 9.07575L1.82847 7.46809C1.75038 7.0646 1.93871 6.81886 2.39345 6.73085L5.76611 6.07815L5.14386 2.86284C5.05845 2.42153 5.21785 2.16176 5.62207 2.08353L7.04313 1.80852C7.44735 1.73029 7.69216 1.91184 7.77756 2.35315L8.39981 5.56846L11.583 4.95243C12.0377 4.86442 12.3042 5.02216 12.3822 5.42565L12.6934 7.03331C12.7763 7.46201 12.5904 7.72037 12.1357 7.80837L8.95252 8.42441L9.57476 11.6397C9.65285 12.0432 9.48979 12.2841 9.08557 12.3623L7.66451 12.6373Z" fill="white"/>
</svg>
