<svg height="472pt" viewBox="0 -28 472.03027 472" width="472pt" xmlns="http://www.w3.org/2000/svg"><path d="m56 152.015625c30.929688 0 56-25.074219 56-56h240c0 30.925781 25.070312 56 56 56v64c-14.859375-.039063-29.117188 5.867187-39.601562 16.398437-2.980469 2.96875-5.609376 6.273438-7.839844 9.839844-18.402344 4.398438-34.78125 14.886719-46.480469 29.761719h-258.078125zm224 32c0-26.511719-21.492188-48-48-48s-48 21.488281-48 48c0 26.507813 21.492188 48 48 48s48-21.492187 48-48zm0 0" fill="#2d8e43"/><path d="m107.359375 272.015625h206.71875c-7.445313 9.425781-12.792969 20.335937-15.679687 32h-196.902344c-5.496094-18.242187 34.902344-32 5.863281-32zm0 0" fill="#6fb944"/><path d="m440 265.296875c26.539062 27.085937 31.640625 68.59375 12.445312 101.300781-19.191406 32.703125-57.914062 48.496094-94.503906 38.535156-36.589844-9.957031-61.972656-43.195312-61.941406-81.117187-.019531-6.738281.785156-13.457031 2.398438-20 7.578124-30.570313 31.542968-54.382813 62.160156-61.761719 6.375-1.480468 12.898437-2.234375 19.441406-2.238281 22.597656-.035156 44.242188 9.085937 60 25.28125zm0 0" fill="#dbd9da"/><path d="m156 352.015625c33.121094 0 60-17.921875 60-40v32c0 21.199219-24.71875 38.558594-56 39.839844-1.328125.132812-2.664062.1875-4 .160156-25.761719 0-47.761719-10.878906-56.238281-26.082031-2.460938-4.226563-3.757813-9.027344-3.761719-13.917969v-31.625s34.238281 39.625 60 39.625zm0 0" fill="#f29a2b"/><path d="m214.800781 304.015625c.800781 2.589844 1.203125 5.289063 1.199219 8 0 22.078125-26.878906 40-60 40-25.761719 0-47.761719-10.878906-56.160156-26.082031-2.519532-4.203125-3.84375-9.015625-3.839844-13.917969.324219-9.0625 4.445312-17.570313 11.359375-23.441406 3.796875-3.402344 8.050781-6.257813 12.640625-8.480469 11.203125-5.472656 23.53125-8.242188 36-8.078125 29.039062 0 53.28125 13.757813 58.800781 32zm0 0" fill="#de722a"/><path d="m96 328.015625v16c.003906 4.890625 1.300781 9.691406 3.761719 13.917969-12.136719 6.808594-25.851563 10.285156-39.761719 10.082031-33.121094 0-60-17.921875-60-40v-32c0 22.078125 26.878906 40 60 40 1.335938.027344 2.671875-.027344 4-.160156 10.257812-.324219 20.359375-2.605469 29.761719-6.71875.769531-.328125 1.515625-.699219 2.238281-1.121094zm0 0" fill="#de722a"/><path d="m120 256.015625v8c0 2.710937-.40625 5.40625-1.199219 8-2.121093 6.515625-6.097656 12.269531-11.441406 16.558594-12.398437 9.691406-27.625 15.058593-43.359375 15.28125-1.328125.132812-2.664062.1875-4 .160156-33.121094 0-60-17.921875-60-40v-32c0 22.078125 26.878906 40 60 40s60-17.921875 60-40zm0 0" fill="#de722a"/><path d="m107.359375 288.574219c-6.914063 5.871093-11.035156 14.378906-11.359375 23.441406v16c-.722656.421875-1.46875.792969-2.238281 1.121094-9.402344 4.113281-19.503907 6.394531-29.761719 6.71875-1.328125.132812-2.664062.1875-4 .160156-33.121094 0-60-17.921875-60-40v-32c0 22.078125 26.878906 40 60 40 1.335938.027344 2.671875-.027344 4-.160156 15.734375-.222657 30.960938-5.589844 43.359375-15.28125zm0 0" fill="#f29a2b"/><path d="m120 232.015625c0 22.078125-26.878906 40-60 40s-60-17.921875-60-40c0-13.039063 9.441406-24.640625 24-32 10.003906-4.816406 20.902344-7.488281 32-7.839844 1.328125-.132812 2.664062-.1875 4-.160156 33.121094 0 60 17.917969 60 40zm0 0" fill="#f29a2b"/><path d="m24 32.015625h416v32h-416zm0 0" fill="#2d8e43"/><path d="m280 184.015625c0 26.507813-21.492188 48-48 48s-48-21.492187-48-48c0-26.511719 21.492188-48 48-48s48 21.488281 48 48zm0 0" fill="#2d8e43"/><g fill="#6fb944"><path d="m440 64.015625v201.28125c-15.757812-16.195313-37.402344-25.316406-60-25.28125-6.542969.003906-13.066406.757813-19.441406 2.238281 2.230468-3.566406 4.859375-6.871094 7.839844-9.839844 10.484374-10.53125 24.742187-16.4375 39.601562-16.398437v-64c-30.929688 0-56-25.074219-56-56h-240c0 30.925781-25.070312 56-56 56v40.160156c-11.097656.351563-21.996094 3.023438-32 7.839844v-136zm0 0"/><path d="m24 .015625h416v32h-416zm0 0"/><path d="m280 184.015625c0 26.507813-21.492188 48-48 48s-48-21.492187-48-48c0-26.511719 21.492188-48 48-48s48 21.488281 48 48zm0 0"/></g><path d="m64 120.015625h-16v-24c0-4.417969 3.582031-8 8-8h24v16h-16zm0 0" fill="#2d8e43"/><path d="m416 120.015625h-16v-16h-16v-16h24c4.417969 0 8 3.582031 8 8zm0 0" fill="#2d8e43"/><path d="m380 416.015625c-50.785156-.058594-91.941406-41.214844-92-92-.019531-7.394531.867188-14.765625 2.640625-21.945313 7.933594-32.445312 32.839844-58.039062 65.058594-66.847656s66.683593.550782 90.019531 24.449219c25.941406 26.445313 33.480469 65.875 19.125 100.023437-14.351562 34.148438-47.800781 56.351563-84.84375 56.320313zm0-168c-5.925781.011719-11.828125.695313-17.601562 2.039063-27.691407 6.695312-49.359376 28.242187-56.207032 55.894531-1.464844 5.910156-2.199218 11.976562-2.191406 18.066406-.03125 34.3125 22.933594 64.386719 56.039062 73.398437 33.109376 9.011719 68.144532-5.277343 85.511719-34.871093 17.363281-29.59375 12.746094-67.148438-11.269531-91.65625-14.230469-14.6875-33.832031-22.945313-54.28125-22.871094zm0 0" fill="#4e4e4e"/><path d="m360 360.015625c-2.121094 0-4.15625-.84375-5.65625-2.34375l-24-24 11.3125-11.3125 18.34375 18.34375 58.34375-58.34375 11.3125 11.3125-64 64c-1.5 1.5-3.535156 2.34375-5.65625 2.34375zm0 0" fill="#4e4e4e"/></svg>