<svg height="464pt" viewBox="0 0 464 464" width="464pt" xmlns="http://www.w3.org/2000/svg"><path d="m464 80c0 44.183594-35.816406 80-80 80s-80-35.816406-80-80 35.816406-80 80-80 80 35.816406 80 80zm0 0" fill="#0f71c7"/><path d="m368 128c-2.121094 0-4.15625-.84375-5.65625-2.34375l-32-32 11.3125-11.3125 26.34375 26.34375 58.34375-58.34375 11.3125 11.3125-64 64c-1.5 1.5-3.535156 2.34375-5.65625 2.34375zm0 0" fill="#fff"/><path d="m0 224h416v240h-416zm0 0" fill="#6fb944"/><path d="m88 432c0-30.929688-25.070312-56-56-56v-64c30.929688 0 56-25.070312 56-56h240c0 30.929688 25.070312 56 56 56v64c-30.929688 0-56 25.070312-56 56zm0 0" fill="#2d8e43"/><path d="m256 344c0 26.507812-21.492188 48-48 48s-48-21.492188-48-48 21.492188-48 48-48 48 21.492188 48 48zm0 0" fill="#6fb944"/><g fill="#2d8e43"><path d="m40 280h-16v-24c0-4.417969 3.582031-8 8-8h24v16h-16zm0 0"/><path d="m56 440h-24c-4.417969 0-8-3.582031-8-8v-24h16v16h16zm0 0"/><path d="m392 280h-16v-16h-16v-16h24c4.417969 0 8 3.582031 8 8zm0 0"/><path d="m384 440h-24v-16h16v-16h16v24c0 4.417969-3.582031 8-8 8zm0 0"/><path d="m0 192h416v40h-416zm0 0"/></g><path d="m0 160h416v40h-416zm0 0" fill="#6fb944"/></svg>