<svg height="464pt" viewBox="0 0 464 464" width="464pt" xmlns="http://www.w3.org/2000/svg"><path d="m260.320312 28.320312-204.320312 203.679688h-56l232-232zm0 0" fill="#adabac"/><path d="m435.839844 203.839844-27.839844 28.160156h-352l204.320312-203.679688 28.320313-28.320312 175.359375 175.359375zm0 0" fill="#dbd9da"/><path d="m464 232h-56l27.839844-28.160156zm0 0" fill="#7b7b7b"/><path d="m464 232v232l-191.519531-112.320312zm0 0" fill="#4e4e4e"/><path d="m191.519531 351.679688-191.519531 112.320312v-232zm0 0" fill="#4e4e4e"/><path d="m272.480469 351.679688 191.519531 112.320312h-464l191.519531-112.320312 40.480469-23.679688zm0 0" fill="#7b7b7b"/><g fill="#4e4e4e"><path d="m274.320312 226.378906 91.589844-92.480468 11.367188 11.257812-91.589844 92.480469zm0 0"/><path d="m316.921875 107.480469 11.3125-11.3125 11.316406 11.3125-11.316406 11.3125zm0 0"/><path d="m294.296875 130.113281 11.3125-11.3125 11.3125 11.3125-11.3125 11.3125zm0 0"/><path d="m271.671875 152.734375 11.3125-11.316406 11.316406 11.316406-11.316406 11.3125zm0 0"/><path d="m330.496094 226.1875 65.785156-62.285156 11 11.617187-65.78125 62.289063zm0 0"/><path d="m196.519531 145.371094 84.851563-84.855469 22.628906 22.628906-84.855469 84.851563zm0 0"/></g><path d="m464 232-191.519531 119.679688-40.480469-23.679688-40.480469 23.679688-191.519531-119.679688zm0 0" fill="#adabac"/></svg>