<svg height="472pt" viewBox="0 -24 472 472" width="472pt" xmlns="http://www.w3.org/2000/svg"><path d="m360 56h112v240h-472v-240zm0 0" fill="#6fb944"/><path d="m40 112h-16v-24c0-4.417969 3.582031-8 8-8h24v16h-16zm0 0" fill="#2d8e43"/><path d="m56 272h-24c-4.417969 0-8-3.582031-8-8v-24h16v16h16zm0 0" fill="#2d8e43"/><path d="m432 144h16v64h-16zm0 0" fill="#2d8e43"/><path d="m24 144h16v64h-16zm0 0" fill="#2d8e43"/><path d="m448 112h-16v-16h-16v-16h24c4.417969 0 8 3.582031 8 8zm0 0" fill="#2d8e43"/><path d="m440 272h-24v-16h16v-16h16v24c0 4.417969-3.582031 8-8 8zm0 0" fill="#2d8e43"/><path d="m408 176c0 97.203125-78.796875 176-176 176s-176-78.796875-176-176 78.796875-176 176-176 176 78.796875 176 176zm0 0" fill="#0f71c7"/><path d="m376 176c0 79.527344-64.472656 144-144 144s-144-64.472656-144-144 64.472656-144 144-144 144 64.472656 144 144zm0 0" fill="#e6a71e"/><path d="m373.65625 373.65625 50.34375 50.34375 40-40-50.34375-50.34375c-3.125-3.125-8.1875-3.125-11.3125 0l-28.6875 28.6875c-3.125 3.125-3.125 8.1875 0 11.3125zm0 0" fill="#4e4e4e"/><path d="m336.003906 319.996094 24-24.003906 40 40-24 24.003906zm0 0" fill="#7b7b7b"/><g fill="#fecf2c"><path d="m148.566406 162.664062c-3.03125-8.5625-4.574218-17.582031-4.566406-26.664062v-8h16v8c-.007812 7.269531 1.226562 14.484375 3.648438 21.335938zm0 0"/><path d="m170.664062 195.585938c-4.988281-4.480469-9.40625-9.558594-13.144531-15.121094l13.289063-8.921875c2.992187 4.464843 6.527344 8.535156 10.527344 12.121093zm0 0"/><path d="m179.542969 290.488281c-11.25-7.554687-20.417969-17.824219-26.65625-29.855469l14.226562-7.34375c4.988281 9.636719 12.332031 17.855469 21.34375 23.902344zm0 0"/><path d="m224 304c-9.085938.011719-18.109375-1.535156-26.671875-4.574219l5.34375-15.082031c6.847656 2.429688 14.0625 3.664062 21.328125 3.65625zm0 0"/><path d="m297.777344 175.824219c-2.851563-3.53125-6.070313-6.75-9.601563-9.601563l10.0625-12.445312c4.414063 3.5625 8.4375 7.585937 12 12zm0 0"/><path d="m277.289062 159.105469c-9.046874-4.695313-19.097656-7.132813-29.289062-7.105469v-16c12.742188.003906 25.300781 3.050781 36.632812 8.886719zm0 0"/><path d="m248 272h-24c-26.5-.027344-47.972656-21.5-48-48h16c0 17.671875 14.328125 32 32 32h24c17.671875 0 32-14.328125 32-32v-8c0-17.671875-14.328125-32-32-32h-24c-26.5-.027344-47.972656-21.5-48-48v-8c.027344-26.5 21.5-47.972656 48-48h24c26.5.027344 47.972656 21.5 48 48h-16c0-17.671875-14.328125-32-32-32h-24c-17.671875 0-32 14.328125-32 32v8c0 17.671875 14.328125 32 32 32h24c26.5.027344 47.972656 21.5 48 48v8c-.027344 26.5-21.5 47.972656-48 48zm0 0"/></g></svg>