<svg height="472pt" viewBox="-18 0 472 472" width="472pt" xmlns="http://www.w3.org/2000/svg"><path d="m104 8h40v464h-40zm0 0" fill="#4e4e4e"/><path d="m344 128v24h-4c-24.300781 0-44-19.699219-44-44s19.699219-44 44-44h4zm0 0" fill="#6fb944"/><path d="m344 208-80.558594 63.28125-27.441406 21.597656v-84.878906zm0 0" fill="#257538"/><path d="m400 160v80c-8.488281-.011719-16.636719 3.355469-22.640625 9.359375s-9.371094 14.152344-9.359375 22.640625h-104l-.558594-.71875 80.558594-63.28125v-80h24c0 17.671875 14.328125 32 32 32zm0 0" fill="#2d8e43"/><path d="m344 152v32h-136c.011719-8.488281-3.355469-16.636719-9.359375-22.640625s-14.152344-9.371094-22.640625-9.359375v-80c17.671875 0 32-14.328125 32-32h136v24h-4c-24.300781 0-44 19.699219-44 44s19.699219 44 44 44zm0 0" fill="#2d8e43"/><g fill="#6fb944"><path d="m436 100v200h-200v-7.121094l27.441406-21.597656.558594.71875h104c-.011719-8.488281 3.355469-16.636719 9.359375-22.640625s14.152344-9.371094 22.640625-9.359375v-80c-17.671875 0-32-14.328125-32-32h-24v-28zm0 0"/><path d="m344 184v24h-200v-200h200v32h-136c0 17.671875-14.328125 32-32 32v80c8.488281-.011719 16.636719 3.355469 22.640625 9.359375s9.371094 14.152344 9.359375 22.640625zm0 0"/><path d="m376 328h48v16h-48zm0 0"/><path d="m64 0h56v16h-56zm0 0"/><path d="m32 0h16v16h-16zm0 0"/><path d="m408 32h24v16h-24zm0 0"/><path d="m376 32h16v16h-16zm0 0"/><path d="m24 352h40v16h-40zm0 0"/><path d="m320 408h40v16h-40zm0 0"/><path d="m288 408h16v16h-16zm0 0"/><path d="m32 136h40v16h-40zm0 0"/><path d="m0 136h16v16h-16zm0 0"/></g></svg>