<svg height="472pt" viewBox="0 -24 472 472" width="472pt" xmlns="http://www.w3.org/2000/svg"><path d="m440 272c-17.699219 0-32-14.300781-32-32v-16h-48v-16h48v-16c0-17.699219 14.300781-32 32-32h32v16h-32c-8.800781 0-16 7.199219-16 16v16h16c17.699219 0 32 14.300781 32 32s-14.300781 32-32 32zm-16-48v16c0 8.800781 7.199219 16 16 16s16-7.199219 16-16-7.199219-16-16-16zm0 0" fill="#e39191"/><path d="m212 48c-12.199219 0-24.300781 1.300781-36.199219 3.800781-2.101562-29.199219-26.402343-51.800781-55.699219-51.800781v18.101562c-9.402343-6.601562-20.601562-10.101562-32.101562-10.101562v93c-22.199219 23-37.5 51.800781-44.199219 83h-43.800781v56l41.800781 5.199219c4.597657 31.300781 17.800781 60.699219 38.199219 85v93.800781h48l4.300781-51.601562c47.199219 24.703124 103.300781 26.101562 151.699219 3.800781l4 47.800781h48v-85c65.800781-68.398438 63.699219-177.199219-4.699219-243-32.101562-30.800781-74.800781-48-119.300781-48zm0 0" fill="#eea2a2"/><path d="m128 148c0 6.628906-5.371094 12-12 12s-12-5.371094-12-12 5.371094-12 12-12 12 5.371094 12 12zm0 0"/><path d="m128 148c0 6.628906-5.371094 12-12 12s-12-5.371094-12-12 5.371094-12 12-12 12 5.371094 12 12zm0 0" fill="#4e4e4e"/><path d="m291.300781 192c-17.699219-17.699219-46.300781-17.699219-64 0l-5.402343 5.398438-4.398438-4.796876c-16.699219-18.101562-44.898438-19.5-63.300781-3.101562l-2.898438 2.601562c-18.699219 16.597657-20.402343 45.199219-3.800781 63.898438.601562.699219 1.199219 1.300781 1.800781 1.898438l6.097657 6.101562 64 64 72-72c17.601562-17.699219 17.601562-46.300781-.097657-64zm0 0" fill="#ee3446"/><g fill="#e39191"><path d="m135.898438 62.300781c-.796876-25.800781-22-46.300781-47.898438-46.300781v-16c34.5 0 62.800781 27.300781 63.898438 61.800781zm0 0"/><path d="m261.199219 97c-29.898438-12-63.097657-12.601562-93.398438-1.898438l-5-14.101562c33.800781-11.898438 70.699219-11.199219 104 2.101562zm0 0"/></g></svg>