<svg height="464pt" viewBox="-24 0 464 464" width="464pt" xmlns="http://www.w3.org/2000/svg"><path d="m48 64h-48v-64h416v64zm0 0" fill="#adabac"/><path d="m24 24h368v16h-368zm0 0" fill="#4e4e4e"/><path d="m304 216h64v-184h-320v184zm0 0" fill="#6fb944"/><path d="m174.222656 216c-4.363281-3.289062-9.144531-5.980469-14.222656-8v-44c0-11.046875-8.953125-20-20-20s-20 8.953125-20 20v84l24 56v40h128v-40c9.585938-4.863281 17.660156-12.246094 23.359375-21.359375 5.640625-9.136719 8.632813-19.664063 8.640625-30.402344v-36.238281zm0 0" fill="#eecfb1"/><path d="m112 184c0-17.671875-14.328125-32-32-32v-56c17.671875 0 32-14.328125 32-32h192c-.011719 8.488281 3.355469 16.636719 9.359375 22.640625s14.152344 9.371094 22.640625 9.359375v56c-8.488281-.011719-16.636719 3.355469-22.640625 9.359375s-9.371094 14.152344-9.359375 22.640625h-144" fill="#2d8e43"/><path d="m232 124c0 15.464844-12.535156 28-28 28s-28-12.535156-28-28 12.535156-28 28-28 28 12.535156 28 28zm0 0" fill="#6fb944"/><path d="m208 280h-16v-12.878906c-.019531-17.175782-7.957031-33.382813-21.519531-43.921875l9.757812-12.679688c17.484375 13.582031 27.726563 34.464844 27.761719 56.601563zm0 0" fill="#eabe97"/><path d="m104 344h192v120h-192zm0 0" fill="#0f71c7"/><path d="m152 420c0 6.628906-5.371094 12-12 12s-12-5.371094-12-12 5.371094-12 12-12 12 5.371094 12 12zm0 0" fill="#4e4e4e"/><path d="m128 376h168v16h-168zm0 0" fill="#085da8"/></svg>