<svg height="472pt" viewBox="-44 0 472 472.00663" width="472pt" xmlns="http://www.w3.org/2000/svg"><path d="m360.003906 120v72l-40-40zm0 0" fill="#693629"/><path d="m120.003906 152-40 40v-72zm0 0" fill="#693629"/><path d="m360.003906 120-40 32 40 40h-280l40-40-40-32zm0 0" fill="#4f291f"/><path d="m360.003906 192 24 280h-320v-.160156l10-174.71875 6-105.121094zm0 0" fill="#7d4739"/><path d="m296.003906 200h-16v-124c0-33.136719-26.863281-60-60-60-33.136718 0-60 26.863281-60 60v124h-16v-124c0-41.972656 34.027344-76 76-76s76 34.027344 76 76zm0 0" fill="#4f291f"/><path d="m296.003906 248h-16v-124c0-33.136719-26.863281-60-60-60-33.136718 0-60 26.863281-60 60v124h-16v-124c0-41.972656 34.027344-76 76-76s76 34.027344 76 76zm0 0" fill="#693629"/><path d="m192.003906 416c0 13.253906-10.746094 24-24 24s-24-10.746094-24-24 10.746094-24 24-24 24 10.746094 24 24zm0 0" fill="#2d8e43"/><path d="m.00390625 368c0 22.078125 26.87890575 40 59.99999975 40 1.335938.027344 2.671875-.027344 4-.160156 31.28125-1.28125 56-18.640625 56-39.839844v32c0 13.761719-10.402344 25.839844-26.242187 33.121094-9.398438 4.117187-19.5 6.398437-29.757813 6.71875-1.328125.132812-2.664062.1875-4 .160156-33.121094 0-59.99999975-17.921875-59.99999975-40zm0 0" fill="#f29a2b"/><path d="m120.003906 400v32c0 21.199219-24.71875 38.558594-56 39.839844-1.328125.132812-2.664062.1875-4 .160156-33.121094 0-59.99999975-17.921875-59.99999975-40v-32c0 22.078125 26.87890575 40 59.99999975 40 1.335938.027344 2.671875-.027344 4-.160156 10.257813-.320313 20.359375-2.601563 29.757813-6.71875 15.839843-7.28125 26.242187-19.359375 26.242187-33.121094zm0 0" fill="#de722a"/><path d="m60.003906 376c33.121094 0 60-17.921875 60-40v32c0 21.199219-24.71875 38.558594-56 39.839844-1.328125.132812-2.664062.1875-4 .160156-33.121094 0-59.99999975-17.921875-59.99999975-40v-32c0 22.078125 26.87890575 40 59.99999975 40zm0 0" fill="#de722a"/><path d="m118.804688 328c.800781 2.589844 1.203124 5.289062 1.199218 8 0 22.078125-26.878906 40-60 40s-59.99999975-17.921875-59.99999975-40 26.87890575-40 59.99999975-40c29.039063 0 53.28125 13.761719 58.800782 32zm0 0" fill="#f29a2b"/><path d="m336.003906 296v112h-32v-80h-176v-32zm0 0" fill="#6fb944"/><path d="m118.804688 328h185.199218v112h-32v-80h-152v-24c.003906-2.710938-.398437-5.410156-1.199218-8zm0 0" fill="#2d8e43"/><path d="m144.003906 416c0 13.253906 10.746094 24 24 24s24-10.746094 24-24-10.746094-24-24-24-24 10.746094-24 24zm128 56h-208v-.160156c31.28125-1.28125 56-18.640625 56-39.839844v-72h152zm0 0" fill="#6fb944"/><g fill="#2d8e43"><path d="m168.003906 448c-17.671875 0-32-14.328125-32-32s14.328125-32 32-32 32 14.328125 32 32-14.328125 32-32 32zm0-48c-8.835937 0-16 7.164062-16 16s7.164063 16 16 16c8.835938 0 16-7.164062 16-16s-7.164062-16-16-16zm0 0"/><path d="m248.003906 408c-13.253906 0-24-10.746094-24-24h16c0 4.417969 3.582032 8 8 8zm0 0"/><path d="m240.003906 448h-16c0-13.253906 10.746094-24 24-24v16c-4.417968 0-8 3.582031-8 8zm0 0"/></g></svg>