<svg height="480pt" viewBox="0 -4 480 480" width="480pt" xmlns="http://www.w3.org/2000/svg"><path d="m456 32v120h-88v-24c.039062-33.960938-13.433594-66.542969-37.441406-90.558594-1.917969-1.921875-3.839844-3.679687-5.839844-5.441406zm0 0" fill="#7b7b7b"/><path d="m368 128v24h-256v-24c-.058594-36.738281 15.710938-71.71875 43.28125-96 0-.078125.078125 0 .078125 0 48.363281-42.667969 120.917969-42.667969 169.28125 0 0 0 .078125-.078125.078125 0 2 1.761719 3.921875 3.519531 5.839844 5.441406 24.007812 24.015625 37.480468 56.597656 37.441406 90.558594zm0 0" fill="#adabac"/><path d="m24 32h131.28125c-27.570312 24.28125-43.339844 59.261719-43.28125 96v24h-88zm0 0" fill="#7b7b7b"/><path d="m64 184h48v216h-48zm0 0" fill="#7b7b7b"/><path d="m216 184h48v216h-48zm0 0" fill="#7b7b7b"/><path d="m368 184h48v216h-48zm0 0" fill="#7b7b7b"/><g fill="#4e4e4e"><path d="m24 424h432v16h-432zm0 0"/><path d="m0 456h480v16h-480zm0 0"/><path d="m40 392h96v16h-96zm0 0"/><path d="m192 392h96v16h-96zm0 0"/><path d="m344 392h96v16h-96zm0 0"/><path d="m40 176h96v16h-96zm0 0"/><path d="m192 176h96v16h-96zm0 0"/><path d="m344 176h96v16h-96zm0 0"/><path d="m240 128c-22.089844 0-40-17.910156-40-40s17.910156-40 40-40 40 17.910156 40 40c-.027344 22.082031-17.917969 39.972656-40 40zm0-64c-13.253906 0-24 10.746094-24 24s10.746094 24 24 24 24-10.746094 24-24-10.746094-24-24-24zm0 0"/><path d="m432 80h-16v-8h-8v-16h16c4.417969 0 8 3.582031 8 8zm0 0"/><path d="m64 80h-16v-16c0-4.417969 3.582031-8 8-8h16v16h-8zm0 0"/><path d="m424 128h-16v-16h8v-8h16v16c0 4.417969-3.582031 8-8 8zm0 0"/><path d="m72 128h-16c-4.417969 0-8-3.582031-8-8v-16h16v8h8zm0 0"/><path d="m0 144h480v16h-480zm0 0"/></g></svg>