<svg height="480pt" viewBox="0 -4 480 480" width="480pt" xmlns="http://www.w3.org/2000/svg"><path d="m456 32v120h-88v-24c.039062-33.960938-13.433594-66.542969-37.441406-90.558594-1.917969-1.921875-3.839844-3.679687-5.839844-5.441406zm0 0" fill="#7b7b7b"/><path d="m368 128v24h-256v-24c-.058594-36.738281 15.710938-71.71875 43.28125-96 0-.078125.078125 0 .078125 0 48.363281-42.667969 120.917969-42.667969 169.28125 0 0 0 .078125-.078125.078125 0 2 1.761719 3.921875 3.519531 5.839844 5.441406 24.007812 24.015625 37.480468 56.597656 37.441406 90.558594zm0 0" fill="#adabac"/><path d="m24 32h131.28125c-27.570312 24.28125-43.339844 59.261719-43.28125 96v24h-88zm0 0" fill="#7b7b7b"/><path d="m64 184h48v216h-48zm0 0" fill="#7b7b7b"/><path d="m216 184h48v216h-48zm0 0" fill="#7b7b7b"/><path d="m368 184h48v216h-48zm0 0" fill="#7b7b7b"/><g fill="#4e4e4e"><path d="m24 424h432v16h-432zm0 0"/><path d="m0 456h480v16h-480zm0 0"/><path d="m40 392h96v16h-96zm0 0"/><path d="m192 392h96v16h-96zm0 0"/><path d="m344 392h96v16h-96zm0 0"/><path d="m40 176h96v16h-96zm0 0"/><path d="m192 176h96v16h-96zm0 0"/><path d="m344 176h96v16h-96zm0 0"/><path d="m240 128c-22.089844 0-40-17.910156-40-40s17.910156-40 40-40 40 17.910156 40 40c-.027344 22.082031-17.917969 39.972656-40 40zm0-64c-13.253906 0-24 10.746094-24 24s10.746094 24 24 24 24-10.746094 24-24-10.746094-24-24-24zm0 0"/><path d="m432 80h-16v-8h-8v-16h16c4.417969 0 8 3.582031 8 8zm0 0"/><path d="m64 80h-16v-16c0-4.417969 3.582031-8 8-8h16v16h-8zm0 0"/><path d="m424 128h-16v-16h8v-8h16v16c0 4.417969-3.582031 8-8 8zm0 0"/><path d="m72 128h-16c-4.417969 0-8-3.582031-8-8v-16h16v8h8zm0 0"/><path d="m0 144h480v16h-480zm0 0"/></g><path d="m200 376c0 13.253906-10.746094 24-24 24s-24-10.746094-24-24 10.746094-24 24-24 24 10.746094 24 24zm0 0" fill="#2d8e43"/><path d="m8 328c0 22.082031 26.878906 40 60 40 1.335938.027344 2.671875-.027344 4-.160156 31.28125-1.28125 56-18.640625 56-39.839844v32c0 13.761719-10.398438 25.839844-26.238281 33.121094-9.402344 4.117187-19.503907 6.398437-29.761719 6.71875-1.328125.132812-2.664062.1875-4 .160156-33.121094 0-60-17.917969-60-40zm0 0" fill="#f29a2b"/><path d="m128 360v32c0 21.199219-24.71875 38.558594-56 39.839844-1.328125.132812-2.664062.1875-4 .160156-33.121094 0-60-17.917969-60-40v-32c0 22.082031 26.878906 40 60 40 1.335938.027344 2.671875-.027344 4-.160156 10.257812-.320313 20.359375-2.601563 29.761719-6.71875 15.839843-7.28125 26.238281-19.359375 26.238281-33.121094zm0 0" fill="#de722a"/><path d="m68 336c33.121094 0 60-17.917969 60-40v32c0 21.199219-24.71875 38.558594-56 39.839844-1.328125.132812-2.664062.1875-4 .160156-33.121094 0-60-17.917969-60-40v-32c0 22.082031 26.878906 40 60 40zm0 0" fill="#de722a"/><path d="m126.800781 288c.800781 2.589844 1.203125 5.289062 1.199219 8 0 22.082031-26.878906 40-60 40s-60-17.917969-60-40c0-22.078125 26.878906-40 60-40 29.039062 0 53.28125 13.761719 58.800781 32zm0 0" fill="#f29a2b"/><path d="m344 256v112h-32v-80h-176v-32zm0 0" fill="#6fb944"/><path d="m126.800781 288h185.199219v112h-32v-80h-152v-24c.003906-2.710938-.398438-5.410156-1.199219-8zm0 0" fill="#2d8e43"/><path d="m152 376c0 13.253906 10.746094 24 24 24s24-10.746094 24-24-10.746094-24-24-24-24 10.746094-24 24zm128 56h-208v-.160156c31.28125-1.28125 56-18.640625 56-39.839844v-72h152zm0 0" fill="#6fb944"/><path d="m176 408c-17.671875 0-32-14.328125-32-32s14.328125-32 32-32 32 14.328125 32 32-14.328125 32-32 32zm0-48c-8.835938 0-16 7.164062-16 16s7.164062 16 16 16 16-7.164062 16-16-7.164062-16-16-16zm0 0" fill="#2d8e43"/><path d="m256 368c-13.253906 0-24-10.746094-24-24h16c0 4.417969 3.582031 8 8 8zm0 0" fill="#2d8e43"/><path d="m248 408h-16c0-13.253906 10.746094-24 24-24v16c-4.417969 0-8 3.582031-8 8zm0 0" fill="#2d8e43"/></svg>