<svg height="472pt" viewBox="-28 0 472 472" width="472pt" xmlns="http://www.w3.org/2000/svg"><path d="m272 354.640625v45.359375h-128v-45.359375c40.808594 17.808594 87.191406 17.808594 128 0zm0 0" fill="#e6a71e"/><path d="m272 354.640625c-64.847656 28.300781-140.582031 10.648437-186.238281-43.40625-45.652344-54.054687-50.382813-131.675781-11.625-190.875 38.753906-59.195313 111.785156-85.910156 179.589843-65.6875 67.804688 20.21875 114.273438 82.574219 114.273438 153.328125.160156 63.667969-37.585938 121.320312-96 146.640625zm0 0" fill="#fecf2c"/><path d="m292.878906 161.359375c20.4375 45.011719 8.773438 98.105469-28.644531 130.410156-37.421875 32.300781-91.648437 36.085938-133.195313 9.296875-41.542968-26.789062-60.472656-77.75-46.488281-125.164062 13.984375-47.414063 57.535157-79.945313 106.96875-79.902344 43.707031-.0625 83.382813 25.523438 101.359375 65.359375zm0 0" fill="#e6a71e"/><path d="m336 208h-32.960938c.035157-16.097656-3.429687-32.015625-10.160156-46.640625l3.121094-1.359375h29.28125c7.078125 15.011719 10.738281 31.402344 10.71875 48zm0 0" fill="#e69e00"/><path d="m325.28125 160h-29.28125l-3.121094 1.359375c-18.070312-39.757813-57.6875-65.304687-101.359375-65.359375h32.960938c43.148437.039062 82.40625 24.964844 100.800781 64zm0 0" fill="#d69706"/><path d="m304 208h32c.019531 16.597656-3.640625 32.988281-10.71875 48h-29.28125l-3.121094-1.359375c6.730469-14.625 10.195313-30.542969 10.160156-46.640625zm0 0" fill="#d69706"/><path d="m296 256h29.28125c-18.394531 39.035156-57.652344 63.960938-100.800781 64h-32.960938c43.671875-.054688 83.289063-25.601562 101.359375-65.359375zm0 0" fill="#e69e00"/><path d="m392 200h24v16h-24zm0 0" fill="#e6a71e"/><path d="m363.355469 109.066406 20.785156-11.996094 7.996094 13.855469-20.785157 12zm0 0" fill="#e6a71e"/><path d="m293.066406 44.648438 12-20.785157 13.855469 8-11.996094 20.785157zm0 0" fill="#e6a71e"/><path d="m363.355469 306.929688 8-13.855469 20.785156 12-8.003906 13.855469zm0 0" fill="#e6a71e"/><path d="m191.519531 295.863281c-48.40625-.148437-87.558593-39.453125-87.519531-87.863281h16c.183594 39.460938 32.292969 71.316406 71.753906 71.191406 39.460938-.125 71.367188-32.183594 71.300782-71.644531-.0625-39.460937-32.074219-71.414063-71.535157-71.410156v-16c48.527344 0 87.863281 39.335937 87.863281 87.863281s-39.335937 87.863281-87.863281 87.863281zm0 0" fill="#d69706"/><path d="m125.855469 179.503906-14.65625-6.335937c4.25-9.84375 10.261719-18.824219 17.746093-26.503907l11.46875 11.152344c-6.136718 6.277344-11.070312 13.628906-14.558593 21.6875zm0 0" fill="#d69706"/><path d="m272 400h-128v38.113281c0 6.058594 3.425781 11.601563 8.847656 14.3125l7.152344 3.574219c0 8.835938 7.164062 16 16 16h64c8.835938 0 16-7.164062 16-16l7.152344-3.574219c5.421875-2.710937 8.847656-8.253906 8.847656-14.3125zm0 0" fill="#4e4e4e"/><g fill="#e6a71e"><path d="m0 200h24v16h-24zm0 0"/><path d="m23.863281 305.070312 20.785157-11.996093 8 13.855469-20.785157 12zm0 0"/><path d="m97.070312 384.136719 12-20.785157 13.855469 8-11.996093 20.785157zm0 0"/><path d="m200 0h16v24h-16zm0 0"/><path d="m97.074219 31.863281 13.855469-8 12 20.78125-13.859376 8zm0 0"/><path d="m293.070312 371.34375 13.855469-7.996094 12 20.78125-13.855469 8zm0 0"/><path d="m23.863281 110.925781 8-13.855469 20.785157 12-8 13.855469zm0 0"/></g></svg>