<svg height="472pt" viewBox="-16 0 472 472" width="472pt" xmlns="http://www.w3.org/2000/svg"><path d="m256 416h-208v-416h240v416zm0 0" fill="#6fb944"/><path d="m256 328c-30.929688 0-56 25.070312-56 56h-64c0-30.929688-25.070312-56-56-56v-240c30.929688 0 56-25.070312 56-56h64c0 30.929688 25.070312 56 56 56zm0 0" fill="#2d8e43"/><path d="m184 253.273438c-21.117188 7.445312-44.574219-.714844-56.507812-19.660157-11.933594-18.945312-9.167969-43.625 6.664062-59.457031s40.511719-18.597656 59.457031-6.664062c18.945313 11.933593 27.105469 35.390624 19.660157 56.507812" fill="#6fb944"/><path d="m264 56h-16v-16h-16v-16h24c4.417969 0 8 3.582031 8 8zm0 0" fill="#2d8e43"/><path d="m88 56h-16v-24c0-4.417969 3.582031-8 8-8h24v16h-16zm0 0" fill="#2d8e43"/><path d="m104 392h-24c-4.417969 0-8-3.582031-8-8v-24h16v16h16zm0 0" fill="#2d8e43"/><path d="m384 472v-264l-96-96v184.160156l-78.398438-78.488281c-4.238281-4.257813-9.996093-6.648437-16-6.648437-6.007812 0-11.765624 2.390624-16 6.648437-8.785156 8.8125-8.785156 23.070313 0 31.878906l78.398438 78.449219v88l40 24v32zm0 0" fill="#eecfb1"/><path d="m341.65625 226.34375-11.3125 11.3125-42.34375-42.34375v-22.625zm0 0" fill="#eabe97"/><g fill="#6fb944"><path d="m424 400h16v48h-16zm0 0"/><path d="m40 376h16v56h-16zm0 0"/><path d="m40 448h16v16h-16zm0 0"/><path d="m0 168h16v40h-16zm0 0"/><path d="m424 136h16v40h-16zm0 0"/><path d="m424 192h16v16h-16zm0 0"/><path d="m328 32h16v40h-16zm0 0"/><path d="m328 88h16v16h-16zm0 0"/></g></svg>