<svg height="464pt" viewBox="0 0 464 464" width="464pt" xmlns="http://www.w3.org/2000/svg"><path d="m288 24h176v416h-176zm0 0" fill="#6fb944"/><g fill="#2d8e43"><path d="m440 80h-16v-16h-16v-16h24c4.417969 0 8 3.582031 8 8zm0 0"/><path d="m288 408h88c0-30.929688 25.070312-56 56-56v-240c-30.929688 0-56-25.070312-56-56h-88zm0 0"/><path d="m432 416h-24v-16h16v-16h16v24c0 4.417969-3.582031 8-8 8zm0 0"/></g><path d="m400 232c0 30.929688-25.070312 56-56 56s-56-25.070312-56-56 25.070312-56 56-56 56 25.070312 56 56zm0 0" fill="#6fb944"/><path d="m16 0h256c8.835938 0 16 7.164062 16 16v432c0 8.835938-7.164062 16-16 16h-256c-8.835938 0-16-7.164062-16-16v-432c0-8.835938 7.164062-16 16-16zm0 0" fill="#4e4e4e"/><path d="m192 32c0 13.253906-10.746094 24-24 24h-48c-13.253906 0-24-10.746094-24-24h-48c-8.835938 0-16 7.164062-16 16v328c0 8.835938 7.164062 16 16 16h192c8.835938 0 16-7.164062 16-16v-328c0-8.835938-7.164062-16-16-16zm0 0" fill="#168de2"/><path d="m160 428c0 6.628906-5.371094 12-12 12s-12-5.371094-12-12 5.371094-12 12-12 12 5.371094 12 12zm0 0" fill="#adabac"/><path d="m146.347656 354.34375 72-72.003906 11.3125 11.316406-72 72zm0 0" fill="#0f71c7"/><path d="m194.347656 354.339844 24-24.003906 11.3125 11.316406-24 24zm0 0" fill="#0f71c7"/></svg>