<svg height="464pt" viewBox="0 -56 464 464" width="464pt" xmlns="http://www.w3.org/2000/svg"><path d="m408 136c13.300781 0 24 10.699219 24 24s-10.699219 24-24 24c-8-.101562-15.5-4.101562-20-10.699219.601562-.902343 1.199219-1.902343 1.699219-3 .5-1 .902343-2.101562 1.199219-3.199219.101562-.402343.300781-.703124.300781-1.101562.199219-.601562.300781-1.101562.402343-1.699219.097657-.601562.199219-1.101562.199219-1.800781.097657-.800781.199219-1.699219.199219-2.601562 0-.898438-.101562-1.796876-.199219-2.597657-.101562-.601562-.199219-1.199219-.199219-1.800781-.101562-.601562-.203124-1.101562-.402343-1.699219-.097657-.402343-.199219-.800781-.300781-1.101562-.296876-1.097657-.699219-2.199219-1.199219-3.199219s-1-2-1.699219-2.898438v-.101562c4.5-6.398438 12-10.398438 20-10.5zm0 0" fill="#fecf2c"/><path d="m391.800781 157.398438c.097657.800781.199219 1.703124.199219 2.601562s-.101562 1.800781-.199219 2.601562c0 .597657-.101562 1.199219-.199219 1.796876-.101562.601562-.203124 1.101562-.402343 1.703124-.097657.398438-.199219.796876-.300781 1.097657-.296876 1.101562-.699219 2.199219-1.199219 3.199219s-1.097657 2-1.699219 2.902343v.097657c-7.300781 11-22.199219 14-33.300781 6.703124-11-7.300781-14-22.203124-6.699219-33.300781 7.300781-11 22.199219-14 33.300781-6.699219 2.699219 1.796876 4.898438 4 6.699219 6.699219v.097657c.601562.902343 1.199219 1.902343 1.699219 2.902343s.902343 2.097657 1.199219 3.199219c.203124.398438.300781.699219.300781 1.101562.199219.597657.300781 1.097657.402343 1.699219.097657.5.199219 1 .199219 1.597657zm0 0" fill="#ee3446"/><path d="m256 196c0-11-8.898438-20-19.898438-20h-.101562-68v-56c0-8.800781 7.199219-16 16-16h264c8.800781 0 16 7.199219 16 16v160c0 8.800781-7.199219 16-16 16h-264c-8.800781 0-16-7.199219-16-16v-64h68c11 0 20-9 20-20zm176-36c0-13.300781-10.699219-24-24-24-8 .101562-15.5 4.101562-20 10.699219-7.300781-11-22.199219-14-33.300781-6.699219-11 7.300781-14 22.199219-6.699219 33.300781 7.300781 11 22.199219 14 33.300781 6.699219 2.699219-1.800781 4.898438-4 6.699219-6.699219 4.5 6.699219 12 10.699219 20 10.699219 13.300781 0 24-10.699219 24-24zm0 0" fill="#0f71c7"/><path d="m168 216v48h-64zm0 0" fill="#eabe97"/><path d="m136 168h32v16h-32zm0 0" fill="#0f71c7"/><path d="m208 208h224v16h-224zm0 0" fill="#4e4e4e"/><path d="m192 248h40v16h-40zm0 0" fill="#4e4e4e"/><path d="m248 248h40v16h-40zm0 0" fill="#4e4e4e"/><path d="m304 248h40v16h-40zm0 0" fill="#4e4e4e"/><path d="m360 248h40v16h-40zm0 0" fill="#4e4e4e"/><g fill="#0f71c7"><path d="m48 336h48v16h-48zm0 0"/><path d="m120 0h56v16h-56zm0 0"/><path d="m88 0h16v16h-16zm0 0"/><path d="m392 64h40v16h-40zm0 0"/><path d="m320 336h40v16h-40zm0 0"/><path d="m288 336h16v16h-16zm0 0"/></g><path d="m168 176h68c11 0 20 9 20 20s-9 20-20 20h-68l-64 48-48-16h-56v-96h64l53.398438-40 42.601562-32 88 24h-64c-8.800781 0-16 7.199219-16 16zm0 0" fill="#eecfb1"/><path d="m104 256h64v16h-64zm0 0" fill="#0f71c7"/></svg>