<svg height="464pt" viewBox="-72 0 464 464" width="464pt" xmlns="http://www.w3.org/2000/svg"><path d="m0 0h320v464h-320zm0 0" fill="#adabac"/><path d="m32 32h256v112h-256zm0 0" fill="#0f71c7"/><g fill="#4e4e4e"><path d="m32 176h40v40h-40zm0 0"/><path d="m32 248h40v40h-40zm0 0"/><path d="m32 320h40v40h-40zm0 0"/><path d="m32 392h40v40h-40zm0 0"/><path d="m176 176h40v40h-40zm0 0"/><path d="m104 176h40v40h-40zm0 0"/><path d="m248 176h40v40h-40zm0 0"/><path d="m256 248h32v40h-32zm0 0"/><path d="m256 320h32v40h-32zm0 0"/><path d="m256 392h32v40h-32zm0 0"/></g><path d="m232 464v-200c0-8.835938-7.164062-16-16-16s-16 7.164062-16 16c0-8.835938-7.164062-16-16-16s-16 7.164062-16 16c0-8.835938-7.164062-16-16-16s-16 7.164062-16 16v-48c0-8.835938-7.164062-16-16-16s-16 7.164062-16 16v128l-3.03125-4c-6.628906-6.625-17.371094-6.625-24 0-6.625 6.628906-6.625 17.371094 0 24l27.03125 28v72zm0 0" fill="#eecfb1"/><path d="m128 264h16v24h-16zm0 0" fill="#eabe97"/><path d="m160 264h16v24h-16zm0 0" fill="#eabe97"/><path d="m192 264h16v24h-16zm0 0" fill="#eabe97"/></svg>