<svg height="472pt" viewBox="-36 0 472 472" width="472pt" xmlns="http://www.w3.org/2000/svg"><path d="m239.839844 288h8.160156v-288h-192v288zm0 0" fill="#0f71c7"/><path d="m136 56c0 13.253906-10.746094 24-24 24s-24-10.746094-24-24 10.746094-24 24-24 24 10.746094 24 24zm0 0" fill="#fecf2c"/><path d="m112 80c-6.792969-.011719-13.257812-2.921875-17.769531-8-8.707031 9.589844-8.234375 24.363281 1.074219 33.375 9.304687 9.011719 24.085937 9.011719 33.390624 0 9.308594-9.011719 9.78125-23.785156 1.074219-33.375-4.511719 5.078125-10.976562 7.988281-17.769531 8zm0 0" fill="#ee3446"/><path d="m192 24h16v32h-16zm0 0" fill="#4e4e4e"/><path d="m192 72h16v32h-16zm0 0" fill="#4e4e4e"/><path d="m192 120h16v32h-16zm0 0" fill="#4e4e4e"/><path d="m192 168h16v32h-16zm0 0" fill="#4e4e4e"/><path d="m88 224h16v40h-16zm0 0" fill="#4e4e4e"/><g fill="#0f71c7"><path d="m384 416h16v48h-16zm0 0"/><path d="m48 336h16v56h-16zm0 0"/><path d="m48 408h16v16h-16zm0 0"/><path d="m0 64h16v40h-16zm0 0"/><path d="m384 152h16v40h-16zm0 0"/><path d="m384 208h16v16h-16zm0 0"/><path d="m152 392h16v40h-16zm0 0"/><path d="m152 448h16v16h-16zm0 0"/></g><path d="m344 472v-264l-96-96v184.160156l-57.472656-57.550781c-4.242188-4.238281-9.992188-6.613281-15.988282-6.605469-5.996093.007813-11.738281 2.398438-15.972656 6.644532-8.785156 8.8125-8.785156 23.070312 0 31.878906l57.433594 57.472656v88l40 24v32zm0 0" fill="#eecfb1"/><path d="m290.34375 237.65625-42.34375-42.34375v-22.625l53.65625 53.65625zm0 0" fill="#eabe97"/></svg>