<svg height="464pt" viewBox="-53 0 464 464" width="464pt" xmlns="http://www.w3.org/2000/svg"><path d="m357.65625 168v256c0 22.089844-17.910156 40-40 40h-232c-22.089844 0-40-17.910156-40-40v-256zm0 0" fill="#0f71c7"/><path d="m93.65625 104v16h-48v-16c0-13.253906 10.746094-24 24-24s24 10.746094 24 24zm0 0" fill="#ce893d"/><path d="m45.65625 120h48v48h-48zm0 0" fill="#7d4739"/><path d="m11.3125 213.65625-11.3125-11.3125 11.921875-11.917969-5.425781-10.851562c-.554688-1.109375-.839844-2.332031-.839844-3.574219v-56c0-4.417969 3.582031-8 8-8h32v16h-24v46.113281l7.199219 14.3125c1.539062 3.078125.933593 6.796875-1.503907 9.230469zm0 0" fill="#4e4e4e"/><g fill="#6fb944"><path d="m293.65625 168h-72c0-19.882812 16.117188-36 36-36s36 16.117188 36 36zm0 0"/><path d="m357.65625 0v168h-32v-112c-13.253906 0-24-10.746094-24-24h-88c0 13.253906-10.746094 24-24 24v112h-32v-168zm0 0"/><path d="m93.65625 0h32v168h-32zm0 0"/></g><path d="m125.65625 0h32v168h-32zm0 0" fill="#2d8e43"/><path d="m325.65625 56v112h-32c0-19.882812-16.117188-36-36-36s-36 16.117188-36 36h-32v-112c13.253906 0 24-10.746094 24-24h88c0 13.253906 10.746094 24 24 24zm0 0" fill="#2d8e43"/><path d="m309.65625 440h-56v-16h56c4.417969 0 8-3.582031 8-8v-224h16v224c0 13.253906-10.746094 24-24 24zm0 0" fill="#168de2"/><path d="m221.65625 424h16v16h-16zm0 0" fill="#168de2"/><path d="m69.65625 192h168v16h-168zm0 0" fill="#168de2"/></svg>