<svg height="464pt" viewBox="0 0 464.00006 464" width="464pt" xmlns="http://www.w3.org/2000/svg"><path d="m21.519531 122.160156c-12.234375 3.050782-21 13.800782-21.519531 26.398438-.00390625 1.152344.078125 2.300781.238281 3.441406.644531 6.074219 3.386719 11.734375 7.761719 16 5.0625 5.140625 11.984375 8.023438 19.199219 8h132.800781v-91.28125zm0 0" fill="#693629"/><path d="m28.789062 168.257812 129.128907-34.859374 4.171875 15.453124-129.128906 34.859376zm0 0" fill="#4f291f"/><path d="m327.28125 176h-94.5625c1.453125-8.957031 5.484375-17.296875 11.601562-24 9.050782-10.199219 22.042969-16.027344 35.679688-16 5.457031-.015625 10.871094.933594 16 2.800781 7.574219 2.660157 14.34375 7.203125 19.679688 13.199219 6.117187 6.703125 10.148437 15.042969 11.601562 24zm0 0" fill="#6fb944"/><path d="m368 88v240c-8.308594-.03125-16.515625 1.828125-24 5.441406v-157.441406h-16.71875c-1.453125-8.957031-5.484375-17.296875-11.601562-24-5.335938-5.996094-12.105469-10.539062-19.679688-13.199219-5.128906-1.867187-10.542969-2.816406-16-2.800781-13.636719-.027344-26.628906 5.800781-35.679688 16-6.117187 6.703125-10.148437 15.042969-11.601562 24h-40.71875v-88c30.929688 0 56-25.070312 56-56h64c0 30.929688 25.070312 56 56 56zm0 0" fill="#2d8e43"/><path d="m432 0h32v416h-32zm0 0" fill="#6fb944"/><path d="m432 0v416h-32v-416zm0 0" fill="#2d8e43"/><path d="m392 416h-48v-82.558594c7.484375-3.613281 15.691406-5.472656 24-5.441406v-240c-30.929688 0-56-25.070312-56-56h-64c0 30.929688-25.070312 56-56 56v88h-32v-176h240v416zm0 0" fill="#6fb944"/><path d="m327.28125 176h-300.082031c-7.214844.023438-14.136719-2.859375-19.199219-8-4.375-4.265625-7.117188-9.925781-7.761719-16h-.238281v288c0 13.253906 10.746094 24 24 24h320v-288zm0 0" fill="#7d4739"/><g fill="#2d8e43"><path d="m376 56h-16v-16h-16v-16h24c4.417969 0 8 3.582031 8 8zm0 0"/><path d="m200 56h-16v-24c0-4.417969 3.582031-8 8-8h24v16h-16zm0 0"/><path d="m360 360h16v32h-16zm0 0"/></g><path d="m304 432h-40v-16h40zm-64 0h-40v-16h40zm-64 0h-40v-16h40zm-64 0h-40v-16h40zm-64 0h-40v-16h40zm264-32h-16v-40h16zm0-64h-16v-40h16zm0-64h-16v-40h16zm-16-48h-40v-16h40zm-64 0h-40v-16h40zm-64 0h-40v-16h40zm-64 0h-40v-16h40zm-64 0h-40v-16h40zm0 0" fill="#693629"/></svg>