<svg height="464pt" viewBox="0 0 464 464" width="464pt" xmlns="http://www.w3.org/2000/svg"><path d="m413.199219 64h-331.199219l318.320312-64zm0 0" fill="#2d8e43"/><path d="m48 232h-48v232h464v-232zm68 88c-6.628906 0-12-5.371094-12-12s5.371094-12 12-12 12 5.371094 12 12-5.371094 12-12 12zm0 0" fill="#7d4739"/><path d="m82 64h366v168h-32v-80c-30.929688 0-56-25.070312-56-56h-256c0 30.929688-25.070312 56-56 56v80h-32v-168zm0 0" fill="#6fb944"/><path d="m416 152v80h-184c26.507812 0 48-21.492188 48-48s-21.492188-48-48-48-48 21.492188-48 48 21.492188 48 48 48h-184v-80c30.929688 0 56-25.070312 56-56h256c0 30.929688 25.070312 56 56 56zm0 0" fill="#2d8e43"/><path d="m280 184c0 26.507812-21.492188 48-48 48s-48-21.492188-48-48 21.492188-48 48-48 48 21.492188 48 48zm0 0" fill="#6fb944"/><path d="m353.28125 200 80 80h-160zm0 0" fill="#ee3446"/><path d="m434.640625 336h-162.640625l81.28125-81.28125 28 28zm0 0" fill="#0f71c7"/><path d="m128 308c0 6.628906-5.371094 12-12 12s-12-5.371094-12-12 5.371094-12 12-12 12 5.371094 12 12zm0 0" fill="#693629"/><path d="m56 120h-16v-24c0-4.417969 3.582031-8 8-8h24v16h-16zm0 0" fill="#2d8e43"/><path d="m424 120h-16v-16h-16v-16h24c4.417969 0 8 3.582031 8 8zm0 0" fill="#2d8e43"/><path d="m372.160156 62.808594-3.199218-15.710938-15.703126 3.140625-3.152343-15.6875 23.519531-4.71875c4.324219-.871093 8.535156 1.925781 9.414062 6.246094l4.800782 23.523437zm0 0" fill="#6fb944"/><path d="m304 440h-40c-4.417969 0-8-3.582031-8-8v-56h16v48h32zm0 0" fill="#693629"/><path d="m320 424h16v16h-16zm0 0" fill="#693629"/><path d="m336.878906 336c-2.617187-3.449219-4.023437-7.667969-4-12 0-8.703125 5.628906-16.40625 13.917969-19.050781 8.289063-2.648438 17.339844.367187 22.382813 7.460937 5.042968 7.089844 4.921874 16.628906-.300782 23.589844zm0 0" fill="#fecf2c"/><path d="m200 256h-168c-4.417969 0-8 3.582031-8 8v168c0 4.417969 3.582031 8 8 8h168c4.417969 0 8-3.582031 8-8v-168c0-4.417969-3.582031-8-8-8zm-160 16h152v56h-152zm0 152v-80h152v80zm0 0" fill="#693629"/></svg>