<svg height="464pt" viewBox="0 0 464 464" width="464pt" xmlns="http://www.w3.org/2000/svg"><path d="m416 132.800781c12.140625 7.046875 22.597656 16.65625 30.640625 28.160157 15.671875 22.386718 21.0625 50.394531 14.816406 77-6.25 26.605468-23.539062 49.285156-47.535156 62.359374-14.082031 7.695313-29.875 11.710938-45.921875 11.679688-49.953125.085938-91.597656-38.210938-95.679688-88-.242187-2.640625-.320312-5.28125-.320312-8-.015625-19.695312 6.046875-38.917969 17.359375-55.039062 8.042969-11.503907 18.5-21.113282 30.640625-28.160157 29.722656-17.066406 66.277344-17.066406 96 0zm-24 67.199219c.058594-11.042969-7.425781-20.703125-18.136719-23.402344-10.710937-2.695312-21.878906 2.261719-27.058593 12.015625-5.179688 9.753907-3.035157 21.785157 5.195312 29.148438v30.238281h32v-30.238281c5.082031-4.507813 7.992188-10.96875 8-17.761719zm0 0" fill="#7b7b7b"/><path d="m288 160v-80c0-44.183594 35.816406-80 80-80s80 35.816406 80 80v80l-1.359375.960938c-8.042969-11.503907-18.5-21.113282-30.640625-28.160157v-52.800781c-.039062-26.492188-21.507812-47.960938-48-48-26.507812 0-48 21.492188-48 48v52.800781c-12.140625 7.046875-22.597656 16.65625-30.640625 28.160157zm0 0" fill="#adabac"/><path d="m416 304v160h-416v-240h272.320312c.902344 10.980469 3.6875 21.726562 8.238282 31.761719l-.558594.238281h-192c0 30.929688-25.070312 56-56 56v64c30.929688 0 56 25.070312 56 56h240c0-30.929688 25.070312-56 56-56v-64l-.238281-1.28125c10.574219-1.703125 20.777343-5.222656 30.160156-10.398438zm0 0" fill="#6fb944"/><path d="m384 312v64c-30.929688 0-56 25.070312-56 56h-240c0-30.929688-25.070312-56-56-56v-64c30.929688 0 56-25.070312 56-56h192l.558594-.238281c15.597656 34.269531 49.789062 56.261719 87.441406 56.238281 5.28125.019531 10.550781-.40625 15.761719-1.28125zm-128 32c0-26.507812-21.492188-48-48-48s-48 21.492188-48 48 21.492188 48 48 48 48-21.492188 48-48zm0 0" fill="#2d8e43"/><path d="m288 160 1.359375.960938c-6.628906 9.382812-11.484375 19.902343-14.320313 31.039062h-275.039062v-32zm0 0" fill="#6fb944"/><path d="m272 216c0 2.71875.078125 5.359375.320312 8h-272.320312v-32h275.039062c-2.03125 7.835938-3.054687 15.902344-3.039062 24zm0 0" fill="#2d8e43"/><path d="m256 344c0 26.507812-21.492188 48-48 48s-48-21.492188-48-48 21.492188-48 48-48 48 21.492188 48 48zm0 0" fill="#6fb944"/><g fill="#2d8e43"><path d="m40 280h-16v-24c0-4.417969 3.582031-8 8-8h24v16h-16zm0 0"/><path d="m56 440h-24c-4.417969 0-8-3.582031-8-8v-24h16v16h16zm0 0"/><path d="m384 440h-24v-16h16v-16h16v24c0 4.417969-3.582031 8-8 8zm0 0"/></g><path d="m368 288v-16c30.914062-.035156 55.964844-25.085938 56-56h16c-.046875 39.746094-32.253906 71.953125-72 72zm0 0" fill="#adabac"/></svg>