<svg height="480pt" viewBox="-24 0 480 480" width="480pt" xmlns="http://www.w3.org/2000/svg"><path d="m404 336c-15.464844 0-28-12.535156-28-28v-12h-24v-16h24v-12c0-15.464844 12.535156-28 28-28h28v16h-28c-6.628906 0-12 5.371094-12 12v12h12c15.464844 0 28 12.535156 28 28s-12.535156 28-28 28zm-12-40v12c0 6.628906 5.371094 12 12 12s12-5.371094 12-12-5.371094-12-12-12zm0 0" fill="#e39191"/><g fill="#2d8e43"><path d="m40 0h16v16h-16zm0 0"/><path d="m40 32h16v32h-16zm0 0"/><path d="m296 96h16v32h-16zm0 0"/></g><path d="m136 8v173.839844c35.054688-18.453125 76.945312-18.453125 112 0v-173.839844zm0 0" fill="#6fb944"/><path d="m108 216c-6.628906 0-12 5.371094-12 12s5.371094 12 12 12 12-5.371094 12-12-5.371094-12-12-12zm140-34.160156v-43.761719c51.253906 19.136719 89.171875 63.144531 100.519531 116.664063 11.351563 53.519531-5.445312 109.125-44.519531 147.417968v77.839844h-48v-45.441406c-40.785156 17.921875-87.214844 17.921875-128 0v45.441406h-48v-77.839844c-22.789062-22.308594-38.386719-50.921875-44.800781-82.160156l-35.199219-8v-40l34-8c5.117188-34.257812 21.265625-65.910156 46-90.160156v-77.839844c25.859375.019531 48.339844 17.742188 54.398438 42.878906.523437-.222656 1.054687-.40625 1.601562-.558594v43.519532c35.054688-18.453125 76.945312-18.453125 112 0zm0 0" fill="#eea2a2"/><path d="m120 228c0 6.628906-5.371094 12-12 12s-12-5.371094-12-12 5.371094-12 12-12 12 5.371094 12 12zm0 0" fill="#4e4e4e"/><path d="m192 144c-17.671875 0-32-14.328125-32-32s14.328125-32 32-32 32 14.328125 32 32-14.328125 32-32 32zm0-48c-8.835938 0-16 7.164062-16 16s7.164062 16 16 16 16-7.164062 16-16-7.164062-16-16-16zm0 0" fill="#2d8e43"/><path d="m160 56v-16c4.417969 0 8-3.582031 8-8h16c0 13.253906-10.746094 24-24 24zm0 0" fill="#2d8e43"/><path d="m224 56c-13.253906 0-24-10.746094-24-24h16c0 4.417969 3.582031 8 8 8zm0 0" fill="#2d8e43"/><path d="m268.167969 205.863281c-7.199219-6.667969-15.238281-12.367187-23.910157-16.953125-32.710937-17.207031-71.796874-17.207031-104.503906 0-8.09375 4.242188-15.621094 9.484375-22.402344 15.601563l-10.703124-11.886719c7.765624-7.007812 16.382812-13.011719 25.648437-17.863281 37.46875-19.304688 81.960937-19.304688 119.429687 0 9.914063 5.234375 19.09375 11.746093 27.3125 19.367187zm0 0" fill="#e39191"/></svg>