<svg height="464pt" viewBox="0 -12 464.00006 464" width="464pt" xmlns="http://www.w3.org/2000/svg"><path d="m455.761719 272.238281c5.285156 5.214844 8.253906 12.335938 8.238281 19.761719 0 15.464844-12.535156 28-28 28h-340v-208h312v152h28c7.425781-.015625 14.546875 2.953125 19.761719 8.238281zm0 0" fill="#adabac"/><g fill="#4e4e4e"><path d="m120 280h152v16h-152zm0 0"/><path d="m120 232h288v16h-288zm0 0"/><path d="m120 136h152v16h-152zm0 0"/><path d="m120 184h152v16h-152zm0 0"/><path d="m328 200h16v16h-16zm0 0"/><path d="m360 200h16v16h-16zm0 0"/><path d="m296 280h152v16h-152zm0 0"/><path d="m408 184h-72c-4.417969 0-8-3.582031-8-8v-32c0-4.417969 3.582031-8 8-8h72c4.417969 0 8 3.582031 8 8v32c0 4.417969-3.582031 8-8 8zm-64-16h56v-16h-56zm0 0"/></g><path d="m413.65625 373.65625-11.3125-11.3125-10.34375 10.34375-10.34375-10.34375-11.3125 11.3125 10.34375 10.34375-10.34375 10.34375 11.3125 11.3125 10.34375-10.34375 10.34375 10.34375 11.3125-11.3125-10.34375-10.34375zm0 0" fill="#0f71c7"/><path d="m288 0h-16v16h-16v16h16v16h16v-16h16v-16h-16zm0 0" fill="#e6a71e"/><path d="m168 392c-13.253906 0-24 10.746094-24 24s10.746094 24 24 24 24-10.746094 24-24-10.746094-24-24-24zm0 32c-4.417969 0-8-3.582031-8-8s3.582031-8 8-8 8 3.582031 8 8-3.582031 8-8 8zm0 0" fill="#ee3446"/><path d="m56 104h40v16h-40zm0 0" fill="#adabac"/><path d="m24 104h16v16h-16zm0 0" fill="#adabac"/><path d="m72 312h40v16h-40zm0 0" fill="#adabac"/><path d="m40 312h16v16h-16zm0 0" fill="#adabac"/><path d="m32 280h64v16h-64zm0 0" fill="#adabac"/><path d="m0 280h16v16h-16zm0 0" fill="#adabac"/><path d="m464 88v204c-.074219-15.433594-12.566406-27.925781-28-28h-28v-208h28c15.464844 0 28 12.535156 28 28zm0 0" fill="#7b7b7b"/></svg>