<svg height="464pt" viewBox="-31 0 463 464" width="464pt" xmlns="http://www.w3.org/2000/svg"><path d="m288.5 93.601562v-37.601562c0-30.929688 25.070312-56 56-56v160l40 192v48h-120v-40l-10.480469 2.078125c-19.625 3.929687-39.585937 5.914063-59.597656 5.921875h-105.921875c0-30.929688 25.070312-56 56-56h32c26.507812 0 48-21.492188 48-48-.039062-26.492188-21.507812-47.960938-48-48h-48c-30.929688 0-56-25.070312-56-56h184.320312l-3.199218-6.878906-36.722656-78.722656c-6.289063-13.449219-6.972657-28.847657-1.898438-42.804688 5.070312-13.953125 15.480469-25.320312 28.941406-31.59375zm0 0" fill="#eecfb1"/><path d="m253.621094 153.121094 3.199218 6.878906h-82.160156l-24.480468-20.558594c-23.675782-19.886718-26.753907-55.199218-6.878907-78.882812zm0 0" fill="#eecfb1"/><path d="m136.5 268c0 37.554688-30.445312 68-68 68s-68-30.445312-68-68 30.445312-68 68-68 68 30.445312 68 68zm0 0" fill="#f29a2b"/><path d="m68.5 312v-16c15.464844 0 28-12.535156 28-28s-12.535156-28-28-28-28 12.535156-28 28h-16c0-24.300781 19.699219-44 44-44s44 19.699219 44 44-19.699219 44-44 44zm0 0" fill="#de722a"/><path d="m44.035156 304.558594c-7.855468-5.296875-13.816406-12.960938-17.023437-21.878906l15.082031-5.359376c2.039062 5.695313 5.847656 10.585938 10.871094 13.960938zm0 0" fill="#de722a"/><path d="m216.5 400h184v64h-184zm0 0" fill="#0f71c7"/><g fill="#085da8"><path d="m256.5 432c0 4.417969-3.582031 8-8 8s-8-3.582031-8-8 3.582031-8 8-8 8 3.582031 8 8zm0 0"/><path d="m336.5 424h64v16h-64zm0 0"/></g></svg>