<svg height="472pt" viewBox="-20 0 472 472" width="472pt" xmlns="http://www.w3.org/2000/svg"><path d="m352 280c.199219-88.199219-71.199219-159.800781-159.398438-160-19.902343 0-39.601562 3.601562-58.203124 10.898438-6.097657-25.097657-28.5-42.796876-54.398438-42.898438v77.800781c-24.699219 24.300781-40.898438 55.898438-46 90.199219l-34 8v48h35.199219c6.402343 31.300781 22 59.898438 44.800781 82.199219v77.800781h48v-45.398438c40.800781 17.898438 87.199219 17.898438 128 0v45.398438h48v-77.800781c30.699219-30.097657 48-71.199219 48-114.199219zm0 0" fill="#eea2a2"/><path d="m404 328c-15.5 0-28-12.5-28-28v-12h-24v-16h24v-12c0-15.5 12.5-28 28-28h28v16h-28c-6.601562 0-12 5.398438-12 12v12h12c15.5 0 28 12.5 28 28s-12.5 28-28 28zm-12-40v12c0 6.601562 5.398438 12 12 12s12-5.398438 12-12-5.398438-12-12-12zm0 0" fill="#e38888"/><path d="m120 220c0 6.628906-5.371094 12-12 12s-12-5.371094-12-12 5.371094-12 12-12 12 5.371094 12 12zm0 0"/><path d="m232 48c0 22.089844-17.910156 40-40 40s-40-17.910156-40-40 17.910156-40 40-40 40 17.910156 40 40zm0 0" fill="#f29a2b"/><g fill="#de722a"><path d="m192 64v-16h16c0 8.800781-7.199219 16-16 16zm0 0"/><path d="m112 0h16v16h-16zm0 0"/><path d="m112 32h16v32h-16zm0 0"/><path d="m240 96h16v32h-16zm0 0"/></g><path d="m229.699219 165.5c-24.597657-8.101562-50.699219-8.101562-75.300781 0l-4.699219-14.300781c27.699219-9.097657 57-9.097657 84.699219 0zm0 0" fill="#e38888"/></svg>