<svg height="464pt" viewBox="-20 0 464 464" width="464pt" xmlns="http://www.w3.org/2000/svg"><g fill="#de722a"><path d="m136 96h16v56h-16zm0 0"/><path d="m312 32h16v56h-16zm0 0"/><path d="m264 0h16v56h-16zm0 0"/></g><path d="m48 464h112l16-80 136-32 80-48 28.800781-38.398438c5.300781-7.070312 3.867188-17.101562-3.199219-22.402343-7.070312-5.300781-17.101562-3.867188-22.402343 3.199219l-19.199219 25.601562-72 40-104 8 40-24 42.480469-42.480469c7.964843-8.027343 8.566406-20.78125 1.390625-29.527343-7.175782-8.742188-19.800782-10.640626-29.230469-4.390626l-53.28125 35.4375c-.886719.65625-1.855469 1.195313-2.878906 1.601563l-107.359375 42.960937c-6.933594 2.710938-12 8.773438-13.441406 16.078126l-15.199219 75.921874zm0 0" fill="#eecfb1"/><path d="m160 464h-160l16-72h158.398438zm0 0" fill="#0f71c7"/><path d="m160 168c0 26.507812-21.492188 48-48 48s-48-21.492188-48-48 21.492188-48 48-48 48 21.492188 48 48zm0 0" fill="#f29a2b"/><path d="m112 192v-16c4.417969 0 8-3.582031 8-8h16c0 13.253906-10.746094 24-24 24zm0 0" fill="#de722a"/><path d="m400 104c0 26.507812-21.492188 48-48 48s-48-21.492188-48-48 21.492188-48 48-48 48 21.492188 48 48zm0 0" fill="#f29a2b"/><path d="m352 128v-16c4.417969 0 8-3.582031 8-8h16c0 13.253906-10.746094 24-24 24zm0 0" fill="#de722a"/><path d="m256.253906 15.867188c-21.207031-15.9062505-46.996094-17.339844-57.601562-3.203126-10.601563 14.140626-2.007813 38.496094 19.199218 54.402344 21.210938 15.90625 46.996094 17.339844 57.601563 3.199219 10.605469-14.136719 2.007813-38.492187-19.199219-54.398437zm0 0" fill="#f29a2b"/><path d="m248.496094 60.304688c-5.988282-.148438-11.773438-2.21875-16.496094-5.90625l9.601562-12.796876c2.207032 2.019532 5.210938 2.941407 8.175782 2.511719l12.621094 9.75c-3.335938 4.25-8.503907 6.640625-13.902344 6.441407zm0 0" fill="#f29a2b"/><path d="m80 8h16v32h-16zm0 0" fill="#f29a2b"/><path d="m136 64h16v16h-16zm0 0" fill="#de722a"/><path d="m208 152h16v24h-16zm0 0" fill="#f29a2b"/><path d="m208 120h16v16h-16zm0 0" fill="#f29a2b"/><path d="m144 428c0 6.628906-5.371094 12-12 12s-12-5.371094-12-12 5.371094-12 12-12 12 5.371094 12 12zm0 0" fill="#4e4e4e"/><path d="m8 416h56v16h-56zm0 0" fill="#085da8"/></svg>