<svg height="464pt" viewBox="0 0 464.078 464" width="464pt" xmlns="http://www.w3.org/2000/svg"><path d="m273.28125 231.800781c3.628906 21.632813 14.519531 41.382813 30.878906 56l-.160156.238281h-304v-56h272zm0 0" fill="#4e4e4e"/><path d="m288 160.039062 1.359375.960938c-1.667969 2.246094-3.191406 4.597656-4.558594 7.039062h-260.800781l19.679688-73.441406c3.4375-12.78125 16.570312-20.367187 29.359374-16.957031l214.960938 57.597656zm0 0" fill="#ee3446"/><path d="m464 216.039062v224c0 13.253907-10.746094 24-24 24h-416c-13.253906 0-24-10.746093-24-24v-152h304l.160156-.238281c28.265625 25.109375 68.636719 31.304688 103.128906 15.816407 34.496094-15.484376 56.695313-49.769532 56.710938-87.578126zm0 0" fill="#0f71c7"/><path d="m272 216.039062c-.019531 5.28125.40625 10.550782 1.28125 15.761719l-1.28125.238281h-272v-40c0-13.253906 10.746094-24 24-24h260.800781c-8.429687 14.589844-12.847656 31.148438-12.800781 48zm0 0" fill="#0f71c7"/><path d="m446.640625 161c-8.042969-11.503906-18.5-21.113281-30.640625-28.160156v-52.800782c-.039062-26.492187-21.507812-47.960937-48-48-26.507812 0-48 21.492188-48 48v52.800782c-12.140625 7.046875-22.597656 16.65625-30.640625 28.160156l-1.359375-.960938v-80c0-44.183593 35.816406-79.9999995 80-79.9999995s80 35.8164065 80 79.9999995v80zm0 0" fill="#adabac"/><path d="m416 132.839844c12.140625 7.046875 22.597656 16.65625 30.640625 28.160156 28.019531 39.902344 21.683594 94.46875-14.742187 126.886719-36.421876 32.414062-91.359376 32.375-127.738282-.085938-16.359375-14.617187-27.25-34.367187-30.878906-56-.875-5.210937-1.300781-10.480469-1.28125-15.761719-.046875-16.851562 4.371094-33.410156 12.800781-48 1.367188-2.441406 2.890625-4.792968 4.558594-7.039062 8.042969-11.503906 18.5-21.113281 30.640625-28.160156 29.722656-17.066406 66.277344-17.066406 96 0zm-24 67.199218c.058594-11.042968-7.425781-20.703124-18.136719-23.402343-10.710937-2.695313-21.878906 2.261719-27.058593 12.015625-5.179688 9.753906-3.035157 21.785156 5.195312 29.148437v30.238281h32v-30.238281c5.082031-4.507812 7.992188-10.96875 8-17.761719zm0 0" fill="#7b7b7b"/><path d="m368 288.039062v-16c30.914062-.035156 55.964844-25.085937 56-56h16c-.046875 39.746094-32.253906 71.953126-72 72zm0 0" fill="#adabac"/><path d="m120 400.039062v-16h-24c-3.03125 0-5.804688 1.710938-7.160156 4.425782l-5.785156 11.574218h-14.109376l-5.746093-11.574218c-1.359375-2.726563-4.152344-4.441406-7.199219-4.425782h-24v16h19.054688l4 8-4 8h-19.054688v16h24c3.03125 0 5.804688-1.710937 7.160156-4.425781l5.785156-11.574219h14.109376l5.785156 11.574219c1.355468 2.714844 4.128906 4.425781 7.160156 4.425781h24v-16h-19.054688l-4-8 4-8zm0 0" fill="#adabac"/><g fill="#4e4e4e"><path d="m368 416.039062h56v16h-56zm0 0"/><path d="m296 416.039062h56v16h-56zm0 0"/><path d="m224 416.039062h56v16h-56zm0 0"/><path d="m152 416.039062h56v16h-56zm0 0"/><path d="m408 328.039062h16v32h-16zm0 0"/><path d="m376 328.039062h16v32h-16zm0 0"/><path d="m344 328.039062h16v32h-16zm0 0"/><path d="m312 328.039062h16v32h-16zm0 0"/><path d="m280 328.039062h16v32h-16zm0 0"/><path d="m248 328.039062h16v32h-16zm0 0"/></g></svg>