<svg height="464pt" viewBox="0 0 464.00352 464" width="464pt" xmlns="http://www.w3.org/2000/svg"><path d="m336 343.921875v120.078125h-336v-336h230.160156zm0 0" fill="#7b7b7b"/><path d="m304 340.960938v91.039062h-256v-272h162.640625zm0 0" fill="#adabac"/><path d="m24 192h40v40h-40zm0 0" fill="#4e4e4e"/><path d="m24 360h40v40h-40zm0 0" fill="#4e4e4e"/><path d="m252.320312 317.203125c-10.789062 30.734375-42.945312 48.460937-74.691406 41.179687-31.75-7.28125-52.964844-37.246093-49.285156-69.613281 3.679688-32.363281 31.082031-56.800781 63.65625-56.769531 3.214844-.003906 6.421875.238281 9.601562.722656zm0 0" fill="#7b7b7b"/><path d="m224 296c0 17.675781-14.328125 32-32 32s-32-14.324219-32-32c0-17.671875 14.328125-32 32-32s32 14.328125 32 32zm0 0" fill="#4e4e4e"/><path d="m144 288h16v16h-16zm0 0" fill="#4e4e4e"/><path d="m296 56-16-56 32 16 24-16 24 16 32-16-16 56 1.121094 5.464844c3.167968 16.222656 12.695312 30.5 26.464844 39.648437 49.753906 32.113281 72.035156 93.433594 54.496093 150-17.539062 56.5625-70.601562 94.523438-129.796875 92.855469-59.199218-1.667969-110.039062-42.558594-124.363281-100.019531-14.324219-57.460938 11.375-117.429688 62.863281-146.691407 15.191406-8.9375 25.828125-23.957031 29.214844-41.257812zm0 0" fill="#f29a2b"/><g fill="#de722a"><path d="m377.121094 61.464844-1.121094-5.464844h-56v16h60.28125c-1.347656-3.414062-2.40625-6.941406-3.160156-10.535156zm0 0"/><path d="m352 200h-24c-8.835938 0-16-7.160156-16-16v-8c0-8.835938 7.164062-16 16-16h24c8.835938 0 16 7.164062 16 16h16c0-17.671875-14.328125-32-32-32v-16h-16v16h-8c-17.671875 0-32 14.328125-32 32v8c0 17.675781 14.328125 32 32 32h24c8.835938 0 16 7.164062 16 16v8c0 8.839844-7.164062 16-16 16h-24c-8.835938 0-16-7.160156-16-16h-16c0 17.675781 14.328125 32 32 32h8v16h16v-16c17.671875 0 32-14.324219 32-32v-8c0-17.671875-14.328125-32-32-32zm0 0"/></g></svg>