<svg height="480pt" viewBox="-63 0 479 480" width="480pt" xmlns="http://www.w3.org/2000/svg"><path d="m.5 144h352v304h-352zm0 0" fill="#7b7b7b"/><path d="m48.5 216v-40h272v240h-272zm0 0" fill="#adabac"/><g fill="#de722a"><path d="m32.5 0h16v16h-16zm0 0"/><path d="m32.5 32h16v32h-16zm0 0"/><path d="m280.5 8h16v16h-16zm0 0"/><path d="m280.5 40h16v32h-16zm0 0"/><path d="m312.5 88h16v32h-16zm0 0"/></g><path d="m248.5 76c0 37.554688-30.445312 68-68 68s-68-30.445312-68-68 30.445312-68 68-68 68 30.445312 68 68zm0 0" fill="#f29a2b"/><path d="m180.5 120c-24.300781 0-44-19.699219-44-44s19.699219-44 44-44 44 19.699219 44 44h-16c0-15.464844-12.535156-28-28-28s-28 12.535156-28 28 12.535156 28 28 28zm0 0" fill="#de722a"/><path d="m195.179688 117.488281-5.359376-15.082031c5.691407-2.042969 10.582032-5.847656 13.960938-10.863281l13.277344 8.914062c-5.289063 7.863281-12.957032 13.828125-21.878906 17.03125zm0 0" fill="#de722a"/><path d="m32.5 448h48v32h-48zm0 0" fill="#4e4e4e"/><path d="m272.5 448h48v32h-48zm0 0" fill="#4e4e4e"/><path d="m32.5 216h24c4.417969 0 8 3.582031 8 8v24c0 4.417969-3.582031 8-8 8h-24c-4.417969 0-8-3.582031-8-8v-24c0-4.417969 3.582031-8 8-8zm0 0" fill="#4e4e4e"/><path d="m32.5 328h24c4.417969 0 8 3.582031 8 8v24c0 4.417969-3.582031 8-8 8h-24c-4.417969 0-8-3.582031-8-8v-24c0-4.417969 3.582031-8 8-8zm0 0" fill="#4e4e4e"/><path d="m256.5 296c0 35.347656-28.652344 64-64 64s-64-28.652344-64-64 28.652344-64 64-64 64 28.652344 64 64zm0 0" fill="#7b7b7b"/><path d="m224.5 296c0 17.671875-14.328125 32-32 32s-32-14.328125-32-32 14.328125-32 32-32 32 14.328125 32 32zm0 0" fill="#4e4e4e"/><path d="m224.5 288h16v16h-16zm0 0" fill="#4e4e4e"/></svg>