<svg height="463pt" viewBox="-23 0 463 463.152" width="463pt" xmlns="http://www.w3.org/2000/svg"><path d="m.0742188 115.574219h416.0000002v240h-416.0000002zm0 0" fill="#6fb944"/><path d="m88.074219 323.574219c0-30.925781-25.070313-56-56-56v-64c30.929687 0 56-25.070313 56-56h240c0 30.929687 25.074219 56 56 56v64c-30.925781 0-56 25.074219-56 56zm0 0" fill="#2d8e43"/><path d="m208.074219 291.574219c-30.925781 0-56-25.070313-56-56 0-30.925781 25.074219-56 56-56 30.929687 0 56 25.074219 56 56-.035157 30.914062-25.085938 55.964843-56 56zm0 0" fill="#6fb944"/><g fill="#2d8e43"><path d="m40.074219 171.574219h-16v-24c0-4.417969 3.582031-8 8-8h24v16h-16zm0 0"/><path d="m56.074219 331.574219h-24c-4.417969 0-8-3.578125-8-8v-24h16v16h16zm0 0"/><path d="m392.074219 171.574219h-16v-16h-16v-16h24c4.421875 0 8 3.582031 8 8zm0 0"/><path d="m384.074219 331.574219h-24v-16h16v-16h16v24c0 4.421875-3.578125 8-8 8zm0 0"/><path d="m311.277344 48-24-48-14.320313 7.152344 13.597657 27.199218c-61.078126-23.851562-129.6875-18.65625-186.480469 14.128907l8 13.839843c54.410156-31.375 120.398437-35.367187 178.195312-10.785156l-33.769531 16.878906 7.152344 14.320313 48-24c1.90625-.9375 3.359375-2.601563 4.039062-4.613281.679688-2.015625.53125-4.21875-.414062-6.121094zm0 0"/><path d="m200.074219 427.574219c-26.867188-.03125-53.457031-5.457031-78.191407-15.957031l33.769532-16.882813-7.152344-14.320313-48 24c-3.957031 1.976563-5.5625 6.785157-3.585938 10.738282l24 48 14.320313-7.152344-13.597656-27.199219c61.066406 23.839844 129.660156 18.640625 186.4375-14.128906l-8-13.839844c-30.402344 17.546875-64.894531 26.769531-100 26.742188zm0 0"/></g></svg>