<svg height="464pt" viewBox="0 0 464 464" width="464pt" xmlns="http://www.w3.org/2000/svg"><path d="m464 232c0 128.128906-103.871094 232-232 232s-232-103.871094-232-232 103.871094-232 232-232 232 103.871094 232 232zm0 0" fill="#168de2"/><path d="m56 216c0 22.078125 26.878906 40 60 40 1.335938.027344 2.671875-.027344 4-.160156 31.28125-1.28125 56-18.640625 56-39.839844v32c0 13.761719-10.398438 25.839844-26.238281 33.121094-9.402344 4.117187-19.503907 6.398437-29.761719 6.71875-1.328125.132812-2.664062.1875-4 .160156-33.121094 0-60-17.921875-60-40zm0 0" fill="#f29a2b"/><path d="m176 248v32c0 21.199219-24.71875 38.558594-56 39.839844-1.328125.132812-2.664062.1875-4 .160156-33.121094 0-60-17.921875-60-40v-32c0 22.078125 26.878906 40 60 40 1.335938.027344 2.671875-.027344 4-.160156 10.257812-.320313 20.359375-2.601563 29.761719-6.71875 15.839843-7.28125 26.238281-19.359375 26.238281-33.121094zm0 0" fill="#de722a"/><path d="m116 224c33.121094 0 60-17.921875 60-40v32c0 21.199219-24.71875 38.558594-56 39.839844-1.328125.132812-2.664062.1875-4 .160156-33.121094 0-60-17.921875-60-40v-32c0 22.078125 26.878906 40 60 40zm0 0" fill="#de722a"/><path d="m174.800781 176c.800781 2.589844 1.203125 5.289062 1.199219 8 0 22.078125-26.878906 40-60 40s-60-17.921875-60-40 26.878906-40 60-40c29.039062 0 53.28125 13.761719 58.800781 32zm0 0" fill="#f29a2b"/><path d="m392 144v112h-32v-80h-176v-32zm0 0" fill="#6fb944"/><path d="m174.800781 176h185.199219v112h-32v-80h-152v-24c.003906-2.710938-.398438-5.410156-1.199219-8zm0 0" fill="#2d8e43"/><path d="m328 320h-208v-.160156c31.28125-1.28125 56-18.640625 56-39.839844v-72h152zm0 0" fill="#6fb944"/><g fill="#2d8e43"><path d="m256 264c0 17.671875-14.328125 32-32 32s-32-14.328125-32-32 14.328125-32 32-32 32 14.328125 32 32zm0 0"/><path d="m304 256c-13.253906 0-24-10.746094-24-24h16c0 4.417969 3.582031 8 8 8zm0 0"/><path d="m296 296h-16c0-13.253906 10.746094-24 24-24v16c-4.417969 0-8 3.582031-8 8zm0 0"/></g><path d="m136 72h192v25.054688l-11.558594-7.710938-8.882812 13.3125 24 16c2.457031 1.640625 5.613281 1.792969 8.21875.398438.230468-.125.40625-.3125.621094-.453126l.042968.054688 24-16-8.882812-13.3125-11.558594 7.710938v-33.054688c0-4.417969-3.582031-8-8-8h-208c-4.417969 0-8 3.582031-8 8v56h16zm0 0" fill="#fecf2c"/><path d="m336 392h-192v-25.054688l11.558594 7.710938 8.882812-13.3125-24-16c-2.457031-1.640625-5.613281-1.792969-8.21875-.398438-.230468.125-.40625.3125-.621094.453126v-.054688l-24 16 8.878907 13.3125 11.519531-7.710938v33.054688c0 4.417969 3.582031 8 8 8h208c4.417969 0 8-3.582031 8-8v-56h-16zm0 0" fill="#fecf2c"/></svg>