<svg height="464pt" viewBox="-80 0 464 464" width="464pt" xmlns="http://www.w3.org/2000/svg"><g fill="#4e4e4e"><path d="m240 0h48c8.835938 0 16 7.164062 16 16v48c0 8.835938-7.164062 16-16 16h-48c-8.835938 0-16-7.164062-16-16v-48c0-8.835938 7.164062-16 16-16zm0 0"/><path d="m232 184h56c8.835938 0 16-7.164062 16-16v-48c0-8.835938-7.164062-16-16-16h-48c-8.835938 0-16 7.164062-16 16v50.160156zm0 0"/><path d="m112 184v-80h64c8.835938 0 16 7.164062 16 16v64zm0 0"/><path d="m16 0h48c8.835938 0 16 7.164062 16 16v48c0 8.835938-7.164062 16-16 16h-48c-8.835938 0-16-7.164062-16-16v-48c0-8.835938 7.164062-16 16-16zm0 0"/><path d="m148 80h28c8.835938 0 16-7.164062 16-16v-48c0-8.835938-7.164062-16-16-16h-48c-8.835938 0-16 7.164062-16 16v64zm0 0"/><path d="m16 104h48c8.835938 0 16 7.164062 16 16v48c0 8.835938-7.164062 16-16 16h-48c-8.835938 0-16-7.164062-16-16v-48c0-8.835938 7.164062-16 16-16zm0 0"/><path d="m80 279.28125v8.71875h-64c-8.835938 0-16-7.164062-16-16v-48c0-8.835938 7.164062-16 16-16h48c8.835938 0 16 7.164062 16 16zm0 0"/><path d="m272 208h16c8.835938 0 16 7.164062 16 16v48c0 8.835938-7.164062 16-16 16h-16zm0 0"/></g><path d="m256 184h-8c-8.824219.027344-15.972656 7.175781-16 16v-16c0-8.835938-7.164062-16-16-16h-8c-8.835938 0-16 7.164062-16 16v-16c0-8.835938-7.164062-16-16-16h-8c-8.835938 0-16 7.164062-16 16v-76c0-4.328125-1.402344-8.539062-4-12-.550781-.773438-1.164062-1.496094-1.839844-2.160156-5.722656-5.734375-14.335937-7.453125-21.820312-4.351563-7.480469 3.101563-12.355469 10.410157-12.339844 18.511719v162.71875l-21.121094-21.117188c-5.992187-5.96875-14.101562-9.335937-22.558594-9.363281-8.492187-.023437-16.644531 3.347657-22.640624 9.363281-3.121094 3.140626-3.121094 8.214844 0 11.359376l82.320312 82.320312v64.71875h112v-44.238281c19.601562-9.8125 31.984375-29.84375 32-51.761719v-96c-.027344-8.824219-7.175781-15.972656-16-16zm0 0" fill="#eecfb1"/><path d="m184 184v24h16v-30h-16zm0 0" fill="#eabe97"/><path d="m224 184h16v32h-16zm0 0" fill="#eabe97"/><path d="m144 168h16v32h-16zm0 0" fill="#eabe97"/><path d="m104 392h160v72h-160zm0 0" fill="#0f71c7"/><path d="m216 416h16v16h-16zm0 0" fill="#4e4e4e"/></svg>