<svg height="472pt" viewBox="0 -3 472 471" width="472pt" xmlns="http://www.w3.org/2000/svg"><path d="m288 168.5v120h-288v-192h288zm0 0" fill="#0f71c7"/><path d="m112 96.5 96-96h264v88h-32l-7.6875 12.800781c-10.113281 16.867188-28.335938 27.191407-48 27.199219h-56.3125l-57.472656 57.390625c-8.808594 8.785156-23.066406 8.785156-31.878906 0-4.246094-4.230469-6.636719-9.976563-6.644532-15.96875-.007812-5.996094 2.367188-11.75 6.605469-15.988281l57.390625-57.433594zm0 0" fill="#eecfb1"/><path d="m187.3125 96.5h-22.625l53.65625-53.65625 11.3125 11.3125zm0 0" fill="#eabe97"/><path d="m235.3125 96.5h-22.625l29.65625-29.65625 11.3125 11.3125zm0 0" fill="#eabe97"/><path d="m80 232.5c0 13.253906-10.746094 24-24 24s-24-10.746094-24-24 10.746094-24 24-24 24 10.746094 24 24zm0 0" fill="#f29a2b"/><path d="m80 232.5c-.011719 6.792969-2.921875 13.257812-8 17.769531 9.589844 8.707031 24.363281 8.234375 33.375-1.074219 9.011719-9.304687 9.011719-24.085937 0-33.390624-9.011719-9.308594-23.785156-9.78125-33.375-1.074219 5.078125 4.511719 7.988281 10.976562 8 17.769531zm0 0" fill="#ee3446"/><g fill="#4e4e4e"><path d="m24 136.5h32v16h-32zm0 0"/><path d="m72 136.5h32v16h-32zm0 0"/><path d="m120 136.5h32v16h-32zm0 0"/><path d="m168 136.5h32v16h-32zm0 0"/><path d="m224 240.5h40v16h-40zm0 0"/></g><path d="m176 464.5h-168v-112c0-8.835938 7.164062-16 16-16h152" fill="#7b7b7b"/><path d="m176 464.5h280v-74.121094c0-7.960937-5.855469-14.710937-13.734375-15.839844l-266.265625-38.039062v64" fill="#7b7b7b"/><path d="m168 336.5h16v64h-16zm0 0" fill="#4e4e4e"/><path d="m210.398438 341.378906 3.523437-25.519531 55.519531 7.601563-3.601562 25.839843zm0 0" fill="#4e4e4e"/><path d="m321.28125 357.21875 3.597656-26.160156-55.4375-7.597656-3.601562 25.839843zm0 0" fill="#adabac"/><path d="m376.71875 365.140625 3.679688-26.480469-55.519532-7.601562-3.597656 26.160156zm0 0" fill="#4e4e4e"/><path d="m376.71875 365.140625 3.679688-26.480469 55.441406 7.601563-3.679688 26.796875zm0 0" fill="#adabac"/><path d="m8 424.5h120v16h-120zm0 0" fill="#4e4e4e"/><path d="m144 424.5h312v16h-312zm0 0" fill="#4e4e4e"/></svg>