<svg height="464pt" viewBox="-56 0 464 464" width="464pt" xmlns="http://www.w3.org/2000/svg"><path d="m32 312v136c0 8.835938 7.164062 16 16 16h256c8.835938 0 16-7.164062 16-16v-432c0-8.835938-7.164062-16-16-16h-256c-8.835938 0-16 7.164062-16 16zm0 0" fill="#4e4e4e"/><path d="m64 144v-96c0-8.835938 7.164062-16 16-16h48c0 13.253906 10.746094 24 24 24h48c13.253906 0 24-10.746094 24-24h48c8.835938 0 16 7.164062 16 16v328c0 8.835938-7.164062 16-16 16h-192c-8.835938 0-16-7.164062-16-16zm0 0" fill="#168de2"/><path d="m208 264c0 13.253906-10.746094 24-24 24s-24-10.746094-24-24 10.746094-24 24-24 24 10.746094 24 24zm0 0" fill="#2d8e43"/><path d="m0 216c0 22.078125 26.878906 40 60 40 1.335938.027344 2.671875-.027344 4-.160156 31.28125-1.28125 56-18.640625 56-39.839844v32c0 13.761719-10.398438 25.839844-26.238281 33.121094-9.402344 4.117187-19.503907 6.398437-29.761719 6.71875-1.328125.132812-2.664062.1875-4 .160156-33.121094 0-60-17.921875-60-40zm0 0" fill="#f29a2b"/><path d="m120 248v32c0 21.199219-24.71875 38.558594-56 39.839844-1.328125.132812-2.664062.1875-4 .160156-33.121094 0-60-17.921875-60-40v-32c0 22.078125 26.878906 40 60 40 1.335938.027344 2.671875-.027344 4-.160156 10.257812-.320313 20.359375-2.601563 29.761719-6.71875 15.839843-7.28125 26.238281-19.359375 26.238281-33.121094zm0 0" fill="#de722a"/><path d="m60 224c33.121094 0 60-17.921875 60-40v32c0 21.199219-24.71875 38.558594-56 39.839844-1.328125.132812-2.664062.1875-4 .160156-33.121094 0-60-17.921875-60-40v-32c0 22.078125 26.878906 40 60 40zm0 0" fill="#de722a"/><path d="m118.800781 176c.800781 2.589844 1.203125 5.289062 1.199219 8 0 22.078125-26.878906 40-60 40s-60-17.921875-60-40 26.878906-40 60-40c29.039062 0 53.28125 13.761719 58.800781 32zm0 0" fill="#f29a2b"/><path d="m352 144v112h-32v-80h-192v-32zm0 0" fill="#6fb944"/><path d="m118.800781 176h201.199219v112h-32v-80h-168v-24c.003906-2.710938-.398438-5.410156-1.199219-8zm0 0" fill="#2d8e43"/><path d="m160 264c0 13.253906 10.746094 24 24 24s24-10.746094 24-24-10.746094-24-24-24-24 10.746094-24 24zm128 56h-224v-.160156c31.28125-1.28125 56-18.640625 56-39.839844v-72h168zm0 0" fill="#6fb944"/><g fill="#2d8e43"><path d="m184 296c-17.671875 0-32-14.328125-32-32s14.328125-32 32-32 32 14.328125 32 32-14.328125 32-32 32zm0-48c-8.835938 0-16 7.164062-16 16s7.164062 16 16 16 16-7.164062 16-16-7.164062-16-16-16zm0 0"/><path d="m264 256c-13.253906 0-24-10.746094-24-24h16c0 4.417969 3.582031 8 8 8zm0 0"/><path d="m256 296h-16c0-13.253906 10.746094-24 24-24v16c-4.417969 0-8 3.582031-8 8zm0 0"/></g><path d="m192 428c0 6.628906-5.371094 12-12 12s-12-5.371094-12-12 5.371094-12 12-12 12 5.371094 12 12zm0 0" fill="#adabac"/></svg>